<?xml version="1.0" encoding="UTF-8"?>
<svg width="78px" height="61px" viewBox="0 0 78 61" version="1.1" xmlns="http://www.w3.org/2000/svg" xmlns:xlink="http://www.w3.org/1999/xlink">
    <!-- Generator: Sketch 54.1 (76490) - https://sketchapp.com -->
    <title>Group 19</title>
    <desc>Created with Sketch.</desc>
    <defs>
        <linearGradient x1="0%" y1="0%" x2="100%" y2="100%" id="linearGradient-1">
            <stop stop-color="#51C2FF" offset="0%"></stop>
            <stop stop-color="#0288D1" offset="100%"></stop>
        </linearGradient>
    </defs>
    <g id="Stage-2" stroke="none" stroke-width="1" fill="none" fill-rule="evenodd">
        <g id="iPad-Pro-Copy" transform="translate(-725.000000, -1056.000000)">
            <g id="Group-27" transform="translate(725.000000, 1042.000000)">
                <g id="Group-19" transform="translate(-0.000000, 14.000000)">
                    <path d="M28.6141713,58.7750545 L-5.68434189e-14,51.1211249 L-5.68434189e-14,9.28027176 L28.6141713,16.9342013 L28.6141713,58.7750545 L28.6141713,58.7750545 Z M44.8546468,-1.27897692e-13 L30.1608832,13.1470517 L44.8546468,4.08170092 L44.8546468,-1.27897692e-13 L44.8546468,-1.27897692e-13 Z M13.9204076,-1.27897692e-13 L13.9204076,4.08170092 L28.6141713,13.1470517 L13.9204076,-1.27897692e-13 L13.9204076,-1.27897692e-13 Z M4.64013588,1.54671196 L4.64013588,8.21475722 L27.8408153,14.6937636 L4.64013588,1.54671196 L4.64013588,1.54671196 Z M30.1608832,58.7750545 L30.1608832,16.9342013 L58.7750545,9.28027176 L58.7750545,51.1211249 L30.1608832,58.7750545 L30.1608832,58.7750545 Z M53.3615626,1.54671196 L53.3615626,8.21475722 L30.1608832,14.6937636 L53.3615626,1.54671196 Z" id="Shape" fill="url(#linearGradient-1)" fill-rule="nonzero"></path>
                    <path d="M59,60 C49.3963819,60 41.6111111,52.2147293 41.6111111,42.6111111 C41.6111111,33.007493 49.3963819,25.2222222 59,25.2222222 C68.6036181,25.2222222 76.3888889,33.007493 76.3888889,42.6111111 C76.3888889,52.2147293 68.6036181,60 59,60 Z M52.3847985,45.3559162 L52.3847985,39.7314182 L51.2988231,39.7314182 C51.1917383,39.7314185 51.0890396,39.7739582 51.0133196,39.849679 C50.9375996,39.9253998 50.8950609,40.028099 50.8950617,40.1351838 L50.8950617,44.9521506 C50.8950609,45.0592354 50.9375996,45.1619346 51.0133196,45.2376554 C51.0890396,45.3133762 51.1917383,45.3559159 51.2988201,45.3559162 L52.3847985,45.3559162 Z M60.0524907,49.0493285 L60.0524907,36.0380059 L55.2451406,39.2645984 L55.2451406,45.822736 L60.0524907,49.0493285 Z M60.4155177,49.3671825 C60.4155138,49.3671825 60.4155099,49.3671825 60.4155059,49.3671825 L60.4155295,49.3671825 C60.4155256,49.3671825 60.4155217,49.3671825 60.4155177,49.3671825 Z M63.3991906,44.6090652 C63.4363465,44.7206709 63.4499714,44.8391144 63.4383008,44.9580012 C63.4137423,45.2081757 63.2796923,45.4346436 63.072185,45.5765278 C64.0632477,44.863779 64.6390556,43.7401048 64.6390659,42.5433346 C64.6390763,41.3465643 64.0632877,40.2228802 63.0918647,39.5238834 C63.2797596,39.6520301 63.4137892,39.87848 63.438347,40.1286318 C63.4500734,40.2480792 63.4362651,40.3670797 63.3994806,40.4783707 C63.1439758,40.5621052 62.853896,40.522262 62.6252529,40.3512088 L62.6138678,40.3425616 C63.2964432,40.868597 63.6962994,41.6815765 63.6962958,42.5433319 C63.6962921,43.4050874 63.296429,44.2180635 62.6138491,44.7440931 C62.8500294,44.5673323 63.1423595,44.5255303 63.3991906,44.6090652 Z M64.901166,46.1083117 C64.9353266,46.2098221 64.9502073,46.3175452 64.9440821,46.4264009 C64.930547,46.6669462 64.8157076,46.8904883 64.628048,47.0415813 C65.9776149,45.9280534 66.7537108,44.2812069 66.7535241,42.5435881 C66.7533378,40.8104195 65.9808596,39.1677249 64.646697,38.062157 C64.8186663,38.2050286 64.9296526,38.4246244 64.9430949,38.6606702 C64.9493169,38.7699289 64.9343752,38.8780586 64.9003374,38.979596 C64.6296995,39.0696713 64.3210966,39.0203734 64.0881645,38.8262483 L64.0829099,38.8218385 C65.1785014,39.7477111 65.8105768,41.1092135 65.8107476,42.5436336 C65.8109183,43.9780536 65.179167,45.3397064 64.0837959,46.2658399 C64.3199418,46.0686249 64.6297593,46.0182665 64.901166,46.1083117 Z M64.646697,38.062157 C64.6432713,38.0593183 64.6398419,38.0564831 64.6364088,38.0536514 C64.6398777,38.0564344 64.6433229,38.0592483 64.6467439,38.0620925 Z M66.4008002,47.6075279 C66.4334496,47.7045588 66.4485823,47.8074715 66.4445182,47.9117101 C66.4352986,48.1481789 66.3281182,48.3701532 66.1486681,48.5244262 C67.8791815,47.0122785 68.8683606,44.833792 68.8679896,42.5437659 C68.8676192,40.2565307 67.8801452,38.0808831 66.1591374,36.5747837 C66.3283541,36.7228859 66.4333614,36.9424018 66.4426453,37.1761616 C66.4467955,37.2806596 66.4316511,37.3838372 66.3990632,37.4809431 C66.1218881,37.5734902 65.8057903,37.5196396 65.571904,37.315499 L65.5669886,37.3111803 C67.0662513,38.6371494 67.9248932,40.5424064 67.9252183,42.5439015 C67.9255434,44.5453966 67.0675204,46.4509325 65.5686885,47.7773885 C65.8056407,47.5700489 66.1231471,47.5151877 66.4008002,47.6075279 Z M66.1591374,36.5747837 C66.1570375,36.572946 66.1549365,36.5711093 66.1528344,36.5692736 C66.1549536,36.5710897 66.157063,36.5729168 66.1591625,36.574755 Z" id="Combined-Shape" stroke="#FFFFFF" stroke-width="2" fill="#219FE3"></path>
                </g>
            </g>
        </g>
    </g>
</svg>