<?xml version="1.0" encoding="UTF-8"?>
<svg width="40px" height="40px" viewBox="0 0 40 40" version="1.1" xmlns="http://www.w3.org/2000/svg" xmlns:xlink="http://www.w3.org/1999/xlink">
    <!-- Generator: Sketch 54.1 (76490) - https://sketchapp.com -->
    <title>Group 7</title>
    <desc>Created with Sketch.</desc>
    <g id="Music" stroke="none" stroke-width="1" fill="none" fill-rule="evenodd">
        <g id="Music-Copy" transform="translate(-38.000000, -16.000000)">
            <g id="Group-7" transform="translate(38.000000, 16.000000)">
                <rect id="Rectangle" fill="#FFFFFF" fill-rule="nonzero" x="0" y="0" width="39.6226415" height="39.6226415" rx="19.8113208"></rect>
                <path d="M13.8393113,20.5069795 C13.6797406,20.2976198 13.5849057,20.0350022 13.5849057,19.7484277 C13.5849057,19.4659281 13.6787044,19.2054155 13.836427,18.9965482 C13.8953384,18.8591704 13.9801102,18.7295363 14.0909928,18.614714 L19.3388876,13.1803599 C19.820032,12.6821203 20.6073901,12.6618984 21.1051993,13.1426272 C21.599562,13.6200276 21.6145376,14.4065286 21.129133,14.9091798 L17.6575968,18.5040607 L27.4440121,18.5040607 C28.1262126,18.5040607 28.6792453,19.0563914 28.6792453,19.7484277 C28.6792453,20.4356726 28.1241283,20.9927947 27.4440121,20.9927947 L17.6575968,20.9927947 L21.129133,24.5876755 C21.6145376,25.0903267 21.599562,25.8768278 21.1051993,26.3542282 C20.6073901,26.834957 19.820032,26.8147351 19.3388876,26.3164954 L14.0909928,20.8821414 C13.9819071,20.7691797 13.8980927,20.6418825 13.8393113,20.5069795 Z" id="Back-Arrow-(30x30)" fill="#000000"></path>
            </g>
        </g>
    </g>
</svg>