<?xml version="1.0" encoding="UTF-8"?>
<svg width="141px" height="120px" viewBox="0 0 141 120" version="1.1" xmlns="http://www.w3.org/2000/svg" xmlns:xlink="http://www.w3.org/1999/xlink">
    <!-- Generator: Sketch 54.1 (76490) - https://sketchapp.com -->
    <title>Group 57</title>
    <desc>Created with Sketch.</desc>
    <g id="Page-1" stroke="none" stroke-width="1" fill="none" fill-rule="evenodd">
        <g id="Group-57">
            <rect id="Rectangle-Copy-2" fill="#FFFFFF" x="0" y="0" width="141" height="120" rx="18"></rect>
            <g id="noun_Actor_1737831" transform="translate(22.000000, 18.000000)" fill="#2196F3" fill-rule="nonzero">
                <path d="M90.7540566,22.0512515 L90.5229755,22.0512515 L90.2918945,22.1275328 C90.2148674,22.1275328 81.0486507,24.3396901 72.1905421,23.5768772 C63.3324335,22.8140644 54.6283789,19.0762813 54.4743249,19.0762813 L54.2432438,19 L54.0891897,19 C54.1662167,20.067938 54.2432438,21.2121573 54.3202708,22.3563766 C57.0162169,23.4243147 64.2567578,26.0178784 71.882434,26.70441 C80.5094615,27.4672229 89.0594619,25.636472 90.7540566,25.2550656 C93.2189216,25.5601907 94.9905434,27.772348 94.8364893,30.2133492 C94.8364893,30.2896305 94.066219,41.2741359 92.9878406,49.8939213 C90.8310837,66.2943981 78.2756776,80.864124 67.183785,79.8724672 C58.0175683,79.1096544 49.6216219,67.59118 47.464865,54.318236 C46.6945947,55.5387366 45.8472973,56.6829559 45,57.7508939 C48.0040542,71.1764005 57.0162169,82.0846246 66.9527039,82.9237187 C67.4148661,83 67.8000013,83 68.2621635,83 C80.7405426,83 93.7581109,67.8963051 96.0689218,50.2753278 C97.2243273,41.579261 97.9175706,30.5184744 97.9945976,30.4421931 C98.1486517,26.0941597 94.9905434,22.3563766 90.7540566,22.0512515 Z" id="Path"></path>
                <path d="M51.9540577,26.1464889 C51.5710198,17.0040479 50.3452983,5.71044433 50.3452983,5.71044433 C49.9622604,2.25321874 46.8213492,-0.282080027 43.3740076,0.0252289148 C43.3740076,0.0252289148 34.3343119,4.02024515 24.9115783,4.78851751 C15.4888446,5.6336171 5.83628822,3.32880004 5.83628822,3.32880004 C2.38894665,3.63610898 -0.21571143,6.70919839 0.0141113413,10.166424 C0.0141113413,10.166424 0.856794838,22.3051272 1.85269351,30.6024686 C3.99770605,48.6568689 17.9402875,64.022316 29.8910717,62.9467347 C41.9184634,61.7943262 52.7967412,44.3545437 51.9540577,26.1464889 Z M10.5859588,24.8404259 C10.4327437,22.9197451 12.6543638,21.1527186 15.6420598,20.9222369 C18.6297558,20.6917552 21.0811987,21.9978182 21.3110215,23.9184991 C21.4642367,25.83918 19.2426166,27.6062064 16.2549205,27.8366881 C13.2672245,28.0671698 10.739174,26.7611068 10.5859588,24.8404259 Z M28.9717806,50.654377 C23.1496037,51.1921677 15.6420598,47.8885966 15.0291991,40.2827003 C15.0291991,40.2827003 18.3999331,45.3532978 28.4355274,44.5081982 C38.4711218,43.5862714 40.9225647,37.9778832 40.9225647,37.9778832 C41.612033,45.5837795 34.7939575,50.1165864 28.9717806,50.654377 Z M37.5518307,25.9928345 C34.5641347,26.2233162 32.1126918,24.9172532 31.882869,22.9965723 C31.6530462,21.0758914 33.951274,19.308865 36.93897,19.0783833 C39.926666,18.8479016 42.3781089,20.1539646 42.6079317,22.0746455 C42.8377545,23.9953264 40.5395268,25.6855255 37.5518307,25.9928345 Z" id="Shape"></path>
                <path d="M56,64.8404092 C56,64.8404092 59.2860692,59.9813298 68.9095574,60.8297405 C78.6112854,61.6781512 80.9584776,67 80.9584776,67 C81.5843955,59.8270734 75.0122572,55.5078917 69.4572356,55.0451223 C63.9022139,54.5823528 56.6259179,57.6674825 56,64.8404092 Z" id="Path"></path>
                <ellipse id="Oval" transform="translate(60.657428, 41.418836) rotate(-84.997546) translate(-60.657428, -41.418836) " cx="60.6574282" cy="41.4188359" rx="3.30468289" ry="5.15385662"></ellipse>
                <ellipse id="Oval" transform="translate(81.203258, 43.259114) rotate(-85.003210) translate(-81.203258, -43.259114) " cx="81.2032583" cy="43.2591138" rx="3.30465426" ry="5.15381212"></ellipse>
            </g>
        </g>
    </g>
</svg>