<?xml version="1.0" encoding="UTF-8"?>
<svg width="27px" height="26px" viewBox="0 0 27 26" version="1.1" xmlns="http://www.w3.org/2000/svg" xmlns:xlink="http://www.w3.org/1999/xlink">
    <!-- Generator: Sketch 54.1 (76490) - https://sketchapp.com -->
    <title>Path</title>
    <desc>Created with Sketch.</desc>
    <g id="Stage-2" stroke="none" stroke-width="1" fill="none" fill-rule="evenodd">
        <g id="iPad-Pro-Copy" transform="translate(-695.000000, -41.000000)" fill="#FFFFFF">
            <g id="Group-5">
                <g id="Group-20" transform="translate(695.000000, 39.000000)">
                    <g id="Group-4" transform="translate(0.000000, 1.000000)">
                        <g id="Group-3">
                            <g id="Home">
                                <path d="M25.8487372,13.3532243 C26.3397522,12.829475 26.2742835,12.043851 25.7505342,11.552836 L14.0316434,1.33972454 C13.5078941,0.881443891 12.6568015,0.881443891 12.1330522,1.37245887 L0.41416143,12.1093197 C-0.109587878,12.6003347 -0.14232221,13.3859586 0.348692767,13.9097079 L0.643301752,14.2043169 C1.13431673,14.7280662 1.91994069,14.7608006 2.41095567,14.3352542 L3.29478262,13.5496303 L3.29478262,25.0721151 C3.29478262,25.7922704 3.85126626,26.348754 4.57142156,26.348754 L9.15422801,26.348754 C9.87438331,26.348754 10.4308669,25.7922704 10.4308669,25.0721151 L10.4308669,17.0194694 L16.257578,17.0194694 L16.257578,25.0721151 C16.257578,25.7922704 16.748593,26.348754 17.4687483,26.348754 L22.3134294,26.348754 C23.0335847,26.348754 23.5900683,25.7922704 23.5900683,25.0721151 L23.5900683,13.7133019 C23.5900683,13.7133019 23.8192086,13.9097079 24.146552,14.2043169 C24.4411609,14.4661916 25.0631132,14.2697856 25.5541282,13.7460363 L25.8487372,13.3532243 Z" id="Path"></path>
                            </g>
                        </g>
                    </g>
                </g>
            </g>
        </g>
    </g>
</svg>