<?xml version="1.0" encoding="utf-8"?>
<!-- Generator: Adobe Illustrator 16.0.0, SVG Export Plug-In . SVG Version: 6.00 Build 0)  -->
<!DOCTYPE svg PUBLIC "-//W3C//DTD SVG 1.1//EN" "http://www.w3.org/Graphics/SVG/1.1/DTD/svg11.dtd">
<svg version="1.1" id="Layer_1" xmlns="http://www.w3.org/2000/svg" xmlns:xlink="http://www.w3.org/1999/xlink" x="0px" y="0px"
	 width="209.011px" height="100.414px" viewBox="0 0 209.011 100.414" enable-background="new 0 0 209.011 100.414"
	 xml:space="preserve">
<path fill-rule="evenodd" clip-rule="evenodd" fill="#0774BB" d="M197.481,48.3c0.008,9.875-3.366,19.608-9.849,27.673
	c-1.711,2.133-3.612,4.104-5.746,5.816c-1.589,1.28-3.206,2.55-4.923,3.646c-1.644,1.043-3.424,1.879-5.163,2.77
	c-0.813,0.419-1.659,0.782-2.512,1.117c-0.808,0.313-1.634,0.577-2.468,0.824c-11.217,3.3-23.317,2.329-33.785-2.886
	c-0.694-0.348-1.396-0.69-2.066-1.088c-0.745-0.441-1.476-0.912-2.18-1.415c-1.027-0.73-2.045-1.473-3.024-2.265
	c-1.869-1.512-3.665-3.11-5.214-4.958c-1.261-1.497-2.507-3.011-3.641-4.602c-0.854-1.196-1.547-2.516-2.27-3.804
	c-0.582-1.036-1.117-2.099-1.643-3.162c-0.269-0.544-0.492-1.119-0.7-1.691c-0.315-0.863-0.617-1.736-0.888-2.614
	c-0.335-1.088-0.624-2.193-0.957-3.283c-0.184-0.604-0.404-0.644-0.846-0.212c-2.614,2.548-5.224,5.103-7.852,7.636
	c-2.332,2.252-4.686,4.479-7.026,6.719C80.213,86.392,60.879,97.579,40.445,89.366c-1.32-0.533-2.618-1.132-3.898-1.756
	c-2.145-1.046-4.21-2.244-6.099-3.705c-1.495-1.154-3.044-2.267-4.386-3.579c-1.702-1.665-3.261-3.48-4.795-5.3
	c-0.908-1.075-1.683-2.269-2.451-3.453c-0.592-0.908-1.114-1.867-1.613-2.829c-0.609-1.171-1.171-2.365-1.731-3.562
	c-0.231-0.49-0.429-0.999-0.602-1.514c-3.502-10.504-3.37-21.438,0.448-31.807c0.291-0.795,0.666-1.557,1.042-2.316
	c0.505-1.022,1.027-2.033,1.585-3.024c0.491-0.877,0.989-1.758,1.574-2.572c1.052-1.46,2.094-2.942,3.282-4.284
	c1.332-1.502,2.76-2.933,4.265-4.262c1.505-1.325,3.13-2.516,4.753-3.7c0.814-0.597,1.731-1.063,2.614-1.564
	c0.947-0.533,1.899-1.058,2.863-1.559c0.635-0.328,1.28-0.653,1.951-0.893c1.438-0.51,2.894-0.981,4.354-1.433
	c7.752-2.4,14.854-2.112,22.688-0.715c2.037,0.367,3.966,1.065,5.875,1.828c1.229,0.493,2.467,0.984,3.646,1.576
	c1.366,0.688,2.693,1.457,3.998,2.251c2.232,1.36,4.299,2.96,6.201,4.743c1.439,1.352,2.794,2.804,4.082,4.304
	c1.091,1.278,2.069,2.659,3.028,4.04c0.631,0.905,1.159,1.884,1.692,2.851c0.591,1.068,1.173,2.146,1.696,3.246
	c0.357,0.763,0.616,1.569,0.902,2.363c0.367,1.006,0.746,2.012,1.066,3.033c0.264,0.844,0.443,1.715,0.688,2.565
	c0.052,0.178,0.19,0.377,0.344,0.461c0.078,0.04,0.305-0.133,0.429-0.249c1.334-1.273,2.659-2.553,3.99-3.826
	c0.75-0.717,1.52-1.423,2.264-2.148c1.522-1.47,3.024-2.959,4.554-4.425c2.153-2.067,4.32-4.121,6.482-6.178
	c7.316-6.975,15.291-13.671,25.482-16.318c6.994-1.813,14.108-1.833,21.103-0.062c0.59,0.153,1.185,0.299,1.769,0.474
	c1.041,0.318,2.081,0.639,3.112,0.989c0.674,0.232,1.335,0.501,1.991,0.784c0.686,0.296,1.363,0.617,2.032,0.952
	c0.678,0.343,1.344,0.718,2.013,1.083c0.476,0.259,0.959,0.508,1.426,0.787c3.369,2.008,6.432,4.42,9.11,7.278
	c1.477,1.576,2.876,3.244,4.139,4.997c1.203,1.677,2.205,3.5,3.245,5.288c0.397,0.686,0.656,1.453,0.982,2.18
	C196.217,36.197,197.477,42.274,197.481,48.3z M56.228,25.049C43.32,24.832,33.003,35.563,32.816,47.832
	C32.608,61.098,43.411,71.541,56.016,71.59c13.293,0.052,23.5-10.529,23.615-23.073C79.749,35.613,69.265,24.896,56.228,25.049z
	 M153.456,25.049c-13.06-0.178-23.453,10.478-23.463,23.18c-0.006,12.911,10.331,23.271,23.322,23.354
	c12.953,0.083,23.466-10.45,23.495-23.224C176.838,35.531,166.313,24.879,153.456,25.049z"/>
</svg>
