<?xml version="1.0" encoding="UTF-8"?>
<svg width="74px" height="15px" viewBox="0 0 74 15" version="1.1" xmlns="http://www.w3.org/2000/svg" xmlns:xlink="http://www.w3.org/1999/xlink">
    <!-- Generator: Sketch 54.1 (76490) - https://sketchapp.com -->
    <title>moovetv svg copy</title>
    <desc>Created with Sketch.</desc>
    <g id="Stage-2" stroke="none" stroke-width="1" fill="none" fill-rule="evenodd" opacity="0.600000024">
        <g id="iPad-Pro-Copy" transform="translate(-752.000000, -270.000000)" fill="#000000">
            <g id="moovetv-svg-copy" transform="translate(752.000000, 270.000000)">
                <path d="M32.4593243,10.1248649 C32.2987838,10.2708108 32.1778378,10.3751351 32.0631081,10.4851351 C31.0405405,11.4668919 30.0402703,12.4733784 28.9916216,13.4252703 C28.0041892,14.3216216 26.8118919,14.8312162 25.4859459,14.9593243 C22.49,15.2494595 19.747973,13.3927027 18.9316216,10.5098649 C18.7556757,9.88932432 18.6041892,9.21756757 18.6524324,8.58581081 C18.9236486,5.04148649 21.6436486,2.7722973 24.6463514,2.66472973 C27.4864865,2.5627027 29.8716216,4.4177027 30.6954054,6.7577027 C30.7774324,6.99108108 30.8433784,7.22932432 30.9337838,7.51945946 C31.2951351,7.18391892 31.6227027,6.88702703 31.9417568,6.58175676 C32.6986486,5.85878378 33.4467568,5.12635135 34.2075676,4.40743243 C35.9398649,2.76932432 37.9959459,2.27256757 40.2539189,2.91648649 C42.6271622,3.59337838 44.0752703,5.23972973 44.5986486,7.64837838 C45.3101351,10.9231081 43.0197297,14.5264865 39.1782432,14.9568919 C36.1921622,15.2913514 33.3827027,13.3604054 32.5755405,10.4758108 C32.547973,10.3760811 32.5105405,10.2785135 32.4593243,10.1248649 Z M24.8768919,12.1106757 C26.7143243,12.107973 28.1805405,10.6416216 28.1793243,8.80608108 C28.1782432,6.99108108 26.6622973,5.48675676 24.857027,5.50662162 C23.0121622,5.52702703 21.5604054,6.98945946 21.5622973,8.82648649 C21.5636486,10.6662162 23.0243243,12.1131081 24.8768919,12.1106757 Z M38.5306757,12.1106757 C40.3658108,12.1122973 41.8509459,10.6397297 41.8509459,8.81797297 C41.8509459,7.00662162 40.3701351,5.52756757 38.532973,5.50486486 C36.7286486,5.48243243 35.2259459,6.98702703 35.2259459,8.81472973 C35.2259459,10.6586486 36.6801351,12.1097297 38.5306757,12.1106757 Z" id="Shape"></path>
                <path d="M3.38162162,4.25851351 C4.24216216,3.09513514 5.32040541,2.56797297 6.67162162,2.60405405 C8.04310811,2.64135135 9.04486486,3.29378378 9.74405405,4.49972973 C9.84621622,4.37364865 9.91945946,4.28310811 9.99243243,4.19243243 C11.2439189,2.63324324 13.6501351,2.11527027 15.4227027,3.04716216 C16.6401351,3.68702703 17.2610811,4.79121622 17.3648649,6.08918919 C17.5022973,7.8122973 17.4643243,9.55040541 17.49,11.2814865 C17.4971622,11.7716216 17.4682432,12.2624324 17.4464865,12.7525676 C17.4109459,13.555 16.9895946,14.0064865 16.1893243,14.0577027 C15.8345946,14.0798649 15.462973,14.0781081 15.1201351,13.997973 C14.4405405,13.8382432 14.1166216,13.3885135 14.1237838,12.6909459 C14.1404054,11.0998649 14.172973,9.50851351 14.1858108,7.9172973 C14.1882432,7.55972973 14.1691892,7.19513514 14.1041892,6.84432432 C13.9947297,6.25378378 13.7533784,5.72459459 13.1190541,5.53040541 C12.4445946,5.32391892 11.8221622,5.46432432 11.2854054,5.92364865 C10.7764865,6.35932432 10.5963514,6.94405405 10.5904054,7.59040541 C10.5787838,8.79986486 10.5814865,10.0105405 10.5706757,11.2209459 C10.5659459,11.7322973 10.5497297,12.2452703 10.5255405,12.7567568 C10.4925676,13.4532432 10.0525676,13.9586486 9.36364865,14.0466216 C9.03283784,14.0893243 8.68486486,14.0859459 8.355,14.0354054 C7.62432432,13.9228378 7.24918919,13.4668919 7.25418919,12.7251351 C7.26540541,11.1006757 7.31527027,9.47594595 7.29256757,7.8522973 C7.28581081,7.34351351 7.18040541,6.80162162 6.97594595,6.33756757 C6.49054054,5.23716216 4.93364865,5.06851351 4.14337838,5.98837838 C3.6772973,6.53148649 3.53702703,7.19608108 3.52621622,7.87810811 C3.50202703,9.42567568 3.51391892,10.9743243 3.51148649,12.522973 C3.50972973,13.5139189 3.0427027,14.0108108 2.05378378,14.0705405 C1.91256757,14.0790541 1.76986486,14.0817568 1.62864865,14.0766216 C0.63027027,14.0390541 0.124864865,13.5241892 0.133513514,12.5263514 C0.148513514,10.7378378 0.183378378,8.95108108 0.196351351,7.16256757 C0.203513514,6.17121622 0.187972973,5.17864865 0.173243243,4.18675676 C0.16472973,3.61783784 0.279459459,3.09918919 0.839459459,2.83810811 C1.47851351,2.54 2.1472973,2.47743243 2.78391892,2.85472973 C3.13716216,3.06432432 3.26756757,3.42972973 3.32162162,3.82243243 C3.33716216,3.93797297 3.35310811,4.05364865 3.38162162,4.25851351 Z" id="Path"></path>
                <path d="M59.5627027,9.76554054 C59.6124324,10.3314865 59.8727027,10.7567568 60.2641892,11.1067568 C61.0225676,11.7854054 61.9177027,11.8997297 62.8672973,11.6718919 C63.2341892,11.5840541 63.582027,11.415 63.9340541,11.2732432 C64.1259459,11.1955405 64.3028378,11.082973 64.4958108,11.0095946 C65.2874324,10.7089189 65.9202703,10.9335135 66.2986486,11.6404054 C66.6972973,12.382973 66.5254054,13.1659459 65.8483784,13.6354054 C65.2112162,14.0783784 64.4952703,14.3337838 63.7368919,14.4727027 C62.657973,14.67 61.5755405,14.7417568 60.49,14.5190541 C57.7583784,13.9572973 55.8481081,11.2416216 56.1797297,8.46972973 C56.412027,6.53108108 57.2797297,4.99905405 58.9037838,3.91756757 C60.8501351,2.62162162 64.2943243,2.59824324 66.1544595,5.2 C66.8578378,6.18405405 67.0863514,7.27445946 66.8667568,8.4577027 C66.7318919,9.18756757 66.3221622,9.56324324 65.5308108,9.60581081 C64.4978378,9.66216216 63.4621622,9.66824324 62.4277027,9.69027027 C61.5777027,9.70824324 60.7281081,9.71851351 59.8782432,9.73472973 C59.7831081,9.73662162 59.6882432,9.75364865 59.5627027,9.76554054 Z M59.5431081,7.64513514 C59.6281081,7.675 59.6678378,7.70148649 59.7071622,7.69959459 C60.9905405,7.66554054 62.2736486,7.62891892 63.557027,7.59040541 C63.7854054,7.58337838 63.8158108,7.43067568 63.7906757,7.24783784 C63.6959459,6.55472973 63.2943243,6.10013514 62.6602703,5.84878378 C61.5271622,5.40027027 60.1267568,6.01364865 59.6781081,7.14905405 C59.6166216,7.30527027 59.5887838,7.47445946 59.5431081,7.64513514 Z" id="Shape"></path>
                <path d="M50.1990541,10.5510811 C50.2793243,10.3632432 50.3240541,10.2667568 50.3617568,10.1677027 C51.0772973,8.28283784 51.7924324,6.39824324 52.5074324,4.51351351 C52.5193243,4.4827027 52.5291892,4.45148649 52.5405405,4.42067568 C53.0228378,3.14581081 54.1131081,2.79405405 55.2639189,3.53743243 C55.702973,3.82135135 55.9074324,4.22135135 55.8248649,4.73310811 C55.7698649,5.07418919 55.6962162,5.42513514 55.5556757,5.73797297 C54.442027,8.21202703 53.3105405,10.6790541 52.185,13.1478378 C51.85,13.8836486 51.3505405,14.4127027 50.5087838,14.5493243 C49.5606757,14.7039189 48.7477027,14.3002703 48.2513514,13.3578378 C47.9572973,12.7994595 47.7147297,12.212973 47.4548649,11.6377027 C46.6125676,9.76986486 45.7725676,7.90121622 44.9343243,6.03162162 C44.822973,5.78324324 44.7175676,5.53094595 44.6262162,5.27486486 C44.2322973,4.16891892 44.7135135,3.3472973 45.8714865,3.13932432 C46.7941892,2.97378378 47.3298649,3.24608108 47.7004054,4.16081081 C48.3622973,5.7972973 48.9885135,7.44797297 49.6294595,9.09297297 C49.807027,9.54797297 49.985,10.002973 50.1990541,10.5510811 Z" id="Path"></path>
                <g id="Group" transform="translate(66.216216, 0.000000)" fill-rule="nonzero">
                    <polygon id="Path" points="1.905 4.20310811 1.33243243 4.20310811 1.33243243 0.611216216 0.0194594595 0.611216216 0.0194594595 0.108108108 3.21797297 0.108108108 3.21797297 0.611351351 1.905 0.611351351"></polygon>
                    <polygon id="Path" points="5.27675676 3.46283784 5.29405405 3.46283784 6.52608108 0.108108108 7.14486486 0.108108108 5.53702703 4.20310811 5.00486486 4.20310811 3.40851351 0.108108108 4.04472973 0.108108108"></polygon>
                </g>
            </g>
        </g>
    </g>
</svg>