<?xml version="1.0" encoding="UTF-8"?>
<svg width="71px" height="58px" viewBox="0 0 71 58" version="1.1" xmlns="http://www.w3.org/2000/svg" xmlns:xlink="http://www.w3.org/1999/xlink">
    <!-- Generator: Sketch 54.1 (76490) - https://sketchapp.com -->
    <title>noun_game controller_181999</title>
    <desc>Created with Sketch.</desc>
    <defs>
        <linearGradient x1="0%" y1="16.5241495%" x2="100%" y2="102.660214%" id="linearGradient-1">
            <stop stop-color="#1BCEDF" offset="0%"></stop>
            <stop stop-color="#5B247A" offset="100%"></stop>
        </linearGradient>
    </defs>
    <g id="Stage-2" stroke="none" stroke-width="1" fill="none" fill-rule="evenodd">
        <g id="iPad-Pro-Copy" transform="translate(-403.000000, -536.000000)" fill="url(#linearGradient-1)" fill-rule="nonzero">
            <g id="Group-24" transform="translate(373.000000, 490.000000)">
                <g id="Group-7" transform="translate(30.000000, 46.000000)">
                    <g id="noun_game-controller_181999">
                        <g id="Group">
                            <path d="M33.202646,15.0923377 C33.202646,15.0039119 33.202646,12.3953506 35.403171,10.1847054 C37.3791525,8.2393376 40.4329423,7.2224408 44.4298141,7.2224408 C51.435567,7.26665371 51.5253843,2.18216973 51.5253843,1.96110521 C51.5253843,1.25369875 52.109197,0.678930995 52.8277358,0.678930995 C53.5462746,0.678930995 54.1300873,1.25369875 54.1300873,1.96110521 C54.1300873,2.04953102 54.04027,9.78678924 44.4747228,9.78678924 C41.151481,9.78678924 38.7264127,10.5384086 37.2893352,11.9974344 C35.8522577,13.4122474 35.807349,15.0481248 35.807349,15.0923377 C35.807349,15.7997442 35.2235363,16.374512 34.5049975,16.374512 C33.7864588,16.374512 33.202646,15.7997442 33.202646,15.0923377 Z M51.656992,14.4704921 C59.1266082,14.4704921 70.0381064,28.0183255 70.0381064,44.9348092 C70.0381064,50.280711 66.0103721,57.6038642 61.5432487,57.6038642 C52.6090019,57.6038642 50.9246766,43.9095678 35.2531289,43.9095678 C19.5815812,43.9095678 17.8972559,57.6038642 8.96300909,57.6038642 C4.49588567,57.6038642 0.468151434,50.280711 0.468151434,44.9348092 C0.468151434,28.0183255 11.3796496,14.4704921 18.8492658,14.4704921 C26.3188821,14.4704921 27.7835127,22.5991921 35.2531289,22.5991921 C42.7227451,22.5991921 44.1873757,14.4704921 51.656992,14.4704921 Z M21.7052956,36.0005624 L24.3416307,36.0005624 C25.8380831,36.0005624 27.0511974,34.7874481 27.0511974,33.2909957 C27.0511974,31.7945434 25.8380831,30.5814291 24.3416307,30.5814291 L21.632064,30.5814291 L21.632064,27.8718624 C21.632064,26.3754101 20.4189497,25.1622957 18.9224974,25.1622957 C17.426045,25.1622957 16.2129307,26.3754101 16.2129307,27.8718624 L16.2129307,30.5814291 L13.503364,30.5814291 C12.0069117,30.5814291 10.7937974,31.7945434 10.7937974,33.2909957 C10.7937974,34.7874481 12.0069117,36.0005624 13.503364,36.0005624 L16.2129307,36.0005624 L16.2129307,38.6735133 C16.2129307,40.190188 17.4424385,41.4196957 18.9591131,41.4196957 C20.4757878,41.4196957 21.7052956,40.190188 21.7052956,38.6735133 L21.7052956,36.0005624 Z M51.5837604,24.4299804 C49.6797406,24.4299804 48.1418784,25.9678426 48.1418784,27.8718624 C48.1418784,29.7758822 49.6797406,31.3137444 51.5837604,31.3137444 C53.4877802,31.3137444 55.0256424,29.7758822 55.0256424,27.8718624 C55.0256424,25.9678426 53.4877802,24.4299804 51.5837604,24.4299804 Z M42.7227451,33.2909957 C42.7227451,35.1950156 44.2606073,36.7328777 46.1646271,36.7328777 C48.0686469,36.7328777 49.6065091,35.1950156 49.6065091,33.2909957 C49.6065091,31.3869759 48.0686469,29.8491138 46.1646271,29.8491138 C44.2606073,29.8491138 42.7227451,31.3869759 42.7227451,33.2909957 Z M51.5837604,42.152011 C53.4877802,42.152011 55.0256424,40.6141489 55.0256424,38.7101291 C55.0256424,36.8061092 53.4877802,35.2682471 51.5837604,35.2682471 C49.6797406,35.2682471 48.1418784,36.8061092 48.1418784,38.7101291 C48.1418784,40.6141489 49.6797406,42.152011 51.5837604,42.152011 Z M57.0028938,36.7328777 C58.9069136,36.7328777 60.4447757,35.1950156 60.4447757,33.2909957 C60.4447757,31.3869759 58.9069136,29.8491138 57.0028938,29.8491138 C55.0988739,29.8491138 53.5610118,31.3869759 53.5610118,33.2909957 C53.5610118,35.1950156 55.0988739,36.7328777 57.0028938,36.7328777 Z" id="Combined-Shape"></path>
                        </g>
                    </g>
                </g>
            </g>
        </g>
    </g>
</svg>