<?xml version="1.0" encoding="UTF-8"?>
<svg width="21px" height="26px" viewBox="0 0 21 26" version="1.1" xmlns="http://www.w3.org/2000/svg" xmlns:xlink="http://www.w3.org/1999/xlink">
    <!-- Generator: Sketch 54.1 (76490) - https://sketchapp.com -->
    <title>Combined Shape</title>
    <desc>Created with Sketch.</desc>
    <g id="Stage-2" stroke="none" stroke-width="1" fill="none" fill-rule="evenodd">
        <g id="iPad-Pro-Copy" transform="translate(-837.000000, -41.000000)" fill="#FFFFFF">
            <g id="Group-5">
                <g id="Group-20" transform="translate(695.000000, 39.000000)">
                    <g id="Group-4" transform="translate(0.000000, 1.000000)">
                        <g id="Group-3">
                            <g id="Group-9" transform="translate(142.000000, 0.000000)">
                                <path d="M3.96049763,21.7309055 C5.20923842,21.7309055 6.22227205,22.7773065 6.22227205,24.0708931 C6.22227205,25.3591409 5.20923842,26.405008 3.96049763,26.405008 C2.71869725,26.405008 1.70566362,25.3591409 1.70566362,24.0708931 C1.70566362,22.7773065 2.71869725,21.7309055 3.96049763,21.7309055 Z M18.2257195,23.42757 C19.0211978,23.42757 19.6626523,24.0935829 19.6626523,24.9178906 C19.6626523,25.7384612 19.0209309,26.4042072 18.2257195,26.4042072 C17.4305082,26.4042072 16.7898545,25.7384612 16.7898545,24.9178906 C16.7898545,24.0935829 17.4305082,23.42757 18.2257195,23.42757 Z M2.33510586,5.83014819 L5.03279172,11.921163 L20.3994041,16.7909318 L18.1987587,22.9665663 L4.48876998,21.238403 L1.59621862,7.83512726 C0.164891526,7.77960394 -0.181862278,8.04761073 0.0805387915,7.16190702 C0.407539106,6.05918188 0.817824399,5.78984039 1.53402182,5.80131877 L2.33510586,5.83014819 Z M8.27898896,2.60064834 L19.0291754,3.58317664 L19.0892817,2.92608758 C19.1073338,2.73936023 18.9671806,2.57282386 18.7820019,2.55525523 L8.71184098,1.61986835 C8.52511954,1.60181324 8.35906765,1.74045254 8.3409976,1.92715927 C8.32116165,2.15078437 8.29880261,2.37701599 8.27898896,2.60064834 Z M8.70563041,1.00430517 L18.9025067,1.95360188 C19.3887695,1.99912424 19.7477796,2.43105537 19.702276,2.91734398 L19.2681031,7.64205182 L18.6730717,7.44871441 L18.8690193,5.30872298 L8.11880697,4.32619851 L7.85045796,7.26072884 L7.82730974,7.52079699 C7.81733424,7.62493466 7.89392368,7.71967973 8.00009662,7.72861076 L8.07958138,7.73569824 L7.89024865,8.31840447 L7.8784121,8.31811549 C7.47473317,8.28068757 7.17777565,7.92003953 7.2131586,7.51739697 L7.73825256,1.80474938 C7.76100655,1.56159838 7.86713461,1.36090387 8.05456474,1.20365646 C8.2419985,1.0463979 8.46244403,0.981675251 8.7055661,1.00442724 L8.70563041,1.00430517 Z M10.1783616,4.86414857 L19.9210192,8.02972993 C20.3850179,8.18049226 20.6410034,8.68294314 20.4902375,9.14695301 L18.7111037,14.6225637 C18.5608398,15.0850285 18.0584143,15.341042 17.5944156,15.1902796 L7.85175793,12.0246983 C7.38775921,11.873936 7.13278782,11.3735228 7.28354942,10.9095263 L9.0626832,5.43391555 C9.21344914,4.96990569 9.71436284,4.71338625 10.1783616,4.86414857 Z M18.9195804,10.4141973 C19.0402939,10.0426795 19.1610022,9.67117726 19.28172,9.29964608 C19.305262,9.22719129 19.2667351,9.15162914 19.194296,9.12809222 C18.3633969,8.85811675 17.5324978,8.58814128 16.7015988,8.31816581 C16.6306757,8.29512151 16.5530744,8.33465953 16.5300344,8.40556922 C16.4093166,8.7771004 16.2886082,9.1486026 16.1678948,9.5201204 C16.1448505,9.59104347 16.1843914,9.66864334 16.2553145,9.69168764 C17.0862136,9.96166311 17.9171126,10.2316386 18.7480117,10.501614 C18.817374,10.5241512 18.8960384,10.4866521 18.9195804,10.4141973 Z M15.9841127,13.1962391 L17.6905917,13.7507077 C17.7615147,13.773752 17.8391204,13.7342006 17.8621611,13.6632887 L17.9463065,13.4043159 C17.9693508,13.3333928 17.9298142,13.2557795 17.8588911,13.2327352 L16.1524121,12.6782666 C16.0799507,12.6547225 16.0023226,12.6942666 15.9792783,12.7651897 L15.895133,13.0241625 C15.8720923,13.0950745 15.9116512,13.1726949 15.9841127,13.1962391 Z M13.6024042,12.4223751 L15.3104439,12.9773508 C15.3813447,13.0003879 15.4589727,12.9608438 15.4820133,12.8899318 L15.565661,12.6324907 C15.588701,12.561581 15.5491377,12.4839739 15.478237,12.4609368 L13.7701973,11.9059611 C13.6992742,11.8829168 13.6221749,11.9209097 13.5986329,11.9933645 L13.5149852,12.2508056 C13.4919445,12.3217176 13.5314811,12.3993308 13.6024042,12.4223751 Z M11.2222118,11.6490037 L12.9302961,12.203994 C13.0011746,12.2270238 13.0788026,12.1874796 13.1018433,12.1165677 L13.185491,11.8591266 C13.2085309,11.7882169 13.1689677,11.7106098 13.0980892,11.6875799 L11.3900049,11.1325897 C11.3191041,11.1095527 11.2420048,11.1475456 11.2184628,11.2200004 L11.1348151,11.4774415 C11.1117744,11.5483534 11.1513111,11.6259667 11.2222118,11.6490037 Z M8.84206406,10.8756468 L10.550126,11.4306298 C10.6210268,11.4536669 10.6986325,11.4141155 10.7216732,11.3432036 L10.8053209,11.0857624 C10.8283609,11.0148527 10.7888199,10.9372529 10.7179191,10.9142158 L9.00985715,10.3592328 C8.93895638,10.3361958 8.86183474,10.3741814 8.83829275,10.4466362 L8.75464505,10.7040774 C8.73160438,10.7749893 8.77116329,10.8526098 8.84206406,10.8756468 Z" id="Combined-Shape"></path>
                            </g>
                        </g>
                    </g>
                </g>
            </g>
        </g>
    </g>
</svg>