<svg width="97" height="30" viewBox="0 0 97 30" fill="none" xmlns="http://www.w3.org/2000/svg">
<path fill-rule="evenodd" clip-rule="evenodd" d="M4.66955 2.40791C5.90665 0.735908 7.45666 -0.0220981 9.39916 0.0299019C11.3708 0.0829019 12.8109 1.02091 13.8161 2.75491C13.9629 2.57391 14.0682 2.44391 14.1731 2.31291C15.9722 0.0719068 19.4314 -0.673089 21.9796 0.666911C23.7297 1.58691 24.6224 3.1739 24.7716 5.0409C24.9166 6.8579 24.9258 8.68791 24.935 10.5159C24.9383 11.1799 24.9417 11.8429 24.9515 12.5059C24.9601 13.0939 24.9325 13.6829 24.905 14.2719L24.9049 14.2739V14.2749C24.8995 14.3899 24.8941 14.5049 24.8889 14.6209C24.8378 15.7749 24.2321 16.4239 23.0817 16.4969C22.5717 16.5289 22.0375 16.5269 21.5446 16.4109C20.5676 16.1819 20.102 15.5349 20.1123 14.5319C20.123 13.5099 20.1382 12.4879 20.1535 11.4659V11.4649V11.4629C20.1724 10.1979 20.1912 8.93391 20.2015 7.66891C20.2049 7.15491 20.1776 6.63091 20.0841 6.12591C19.9268 5.27691 19.5798 4.5159 18.6679 4.2369C17.6983 3.9399 16.8035 4.14191 16.0319 4.80291C15.3003 5.42891 15.0413 6.26991 15.0328 7.19891C15.0242 8.09391 15.021 8.9889 15.0179 9.8849V9.8859C15.0149 10.7299 15.0119 11.5739 15.0044 12.4189C14.9976 13.1539 14.9743 13.8919 14.9395 14.6269C14.8921 15.6279 14.2596 16.3549 13.2692 16.4809C12.7936 16.5429 12.2934 16.5379 11.8192 16.4649C10.7688 16.3029 10.2295 15.6479 10.2367 14.5809C10.2423 13.7699 10.2546 12.9579 10.2669 12.1459C10.29 10.6219 10.3132 9.0989 10.2919 7.5749C10.2822 6.8439 10.1306 6.0649 9.83666 5.3979C9.13886 3.8159 6.90065 3.5729 5.76465 4.8959C5.09455 5.6759 4.89296 6.63191 4.87736 7.61291C4.85246 9.20491 4.85416 10.7989 4.85586 12.3919V12.3929C4.85656 13.0249 4.85726 13.6579 4.85626 14.2909C4.85366 15.7159 4.18226 16.4299 2.76066 16.5159C2.55766 16.5279 2.35246 16.5319 2.14946 16.5249C0.714258 16.4709 -0.0123414 15.7299 0.000158573 14.2959C0.0103586 13.0719 0.0270597 11.8489 0.0438597 10.6269C0.0622597 9.2789 0.0806601 7.9319 0.0904601 6.5839C0.10036 5.2069 0.079855 3.82891 0.059355 2.45091L0.057257 2.30491C0.044957 1.48691 0.20996 0.7419 1.01496 0.3659C1.93366 -0.0620995 2.89506 -0.152097 3.81026 0.389903C4.31806 0.691903 4.50556 1.21691 4.58326 1.78091C4.60566 1.94791 4.62855 2.11391 4.66955 2.40791ZM46.246 11.0449L46.245 11.0459C46.118 11.1599 46.008 11.2589 45.901 11.3609C45.441 11.8029 44.983 12.2489 44.525 12.6949C43.523 13.6719 42.521 14.6489 41.486 15.5879C40.066 16.8769 38.352 17.6089 36.446 17.7939C32.139 18.2109 28.198 15.5409 27.0239 11.3959C26.771 10.5039 26.5532 9.53791 26.6226 8.62991C27.0125 3.53391 30.923 0.271908 35.239 0.116908C39.322 -0.0300924 42.751 2.6369 43.935 6.0019C44.014 6.2249 44.082 6.45091 44.157 6.70091C44.195 6.82691 44.235 6.9579 44.278 7.0969C44.442 6.9439 44.602 6.79791 44.757 6.65391C45.093 6.34291 45.413 6.04891 45.727 5.74891C46.174 5.32191 46.618 4.89291 47.062 4.46391C47.701 3.84791 48.339 3.2319 48.984 2.6229C51.475 0.266904 54.43 -0.447093 57.676 0.478907C61.088 1.45191 63.17 3.8189 63.922 7.2819C64.945 11.9909 61.653 17.1709 56.13 17.7899C51.837 18.2709 47.799 15.4949 46.638 11.3469C46.612 11.2539 46.58 11.1609 46.541 11.0469C46.52 10.9859 46.497 10.9189 46.471 10.8429C46.39 10.9159 46.316 10.9829 46.247 11.0439L46.246 11.0449ZM35.571 13.6979C38.212 13.6939 40.32 11.5859 40.318 8.94691C40.317 6.33691 38.137 4.17391 35.542 4.20291C32.89 4.23191 30.803 6.3349 30.806 8.9759C30.808 11.6209 32.908 13.7009 35.571 13.6979ZM55.199 13.6979C57.837 13.6999 59.972 11.5829 59.972 8.96391C59.972 6.35991 57.844 4.2329 55.202 4.1999C52.609 4.1679 50.448 6.3309 50.448 8.9589C50.448 11.6099 52.539 13.6969 55.199 13.6979ZM86.443 12.2549C85.88 11.7509 85.506 11.1399 85.434 10.3259C85.501 10.3199 85.561 10.3129 85.618 10.3059C85.715 10.2939 85.802 10.2839 85.888 10.2819C86.42 10.2719 86.952 10.2629 87.485 10.2549C88.174 10.2439 88.864 10.2329 89.553 10.2179C89.911 10.2099 90.27 10.2039 90.628 10.1979C91.757 10.1779 92.887 10.1579 94.014 10.0969C95.152 10.0349 95.741 9.4949 95.935 8.4459C96.25 6.7449 95.922 5.17691 94.911 3.76191C92.236 0.0209119 87.285 0.0549024 84.487 1.9179C82.152 3.4729 80.905 5.6759 80.571 8.4629C80.094 12.4489 82.84 16.3529 86.767 17.1609C88.328 17.4809 89.884 17.3779 91.435 17.0939C92.525 16.8939 93.555 16.5269 94.471 15.8899C95.444 15.2149 95.691 14.0889 95.118 13.0219C94.574 12.0059 93.664 11.6829 92.526 12.1149C92.38 12.1709 92.24 12.2419 92.1 12.3129C91.975 12.3769 91.849 12.4409 91.719 12.4939C91.594 12.5439 91.471 12.5959 91.347 12.6489C90.966 12.8099 90.583 12.9719 90.185 13.0669C88.82 13.3949 87.533 13.2299 86.443 12.2549ZM85.514 7.31991C85.484 7.30691 85.449 7.2929 85.406 7.2779C85.427 7.1979 85.446 7.1189 85.464 7.0409C85.503 6.8769 85.54 6.7159 85.6 6.5639C86.245 4.9319 88.258 4.04991 89.887 4.69491C90.799 5.05591 91.376 5.70991 91.512 6.70591C91.549 6.96891 91.505 7.18891 91.177 7.19891C89.332 7.25391 87.487 7.30691 85.642 7.35591C85.605 7.35791 85.569 7.34191 85.514 7.31991ZM71.973 11.4559C72.013 11.3639 72.046 11.2869 72.075 11.2209C72.131 11.0909 72.171 10.9979 72.207 10.9039C73.236 8.19391 74.264 5.48491 75.292 2.77491C75.302 2.74991 75.31 2.72391 75.319 2.69891C75.326 2.67991 75.332 2.6609 75.339 2.6419C76.033 0.808902 77.6 0.302897 79.255 1.3719C79.886 1.7799 80.18 2.35491 80.061 3.09091C79.982 3.58091 79.876 4.0859 79.674 4.5359C78.462 7.2289 77.235 9.9159 76.008 12.6029L75.994 12.6349C75.605 13.4869 75.216 14.3379 74.828 15.1889C74.347 16.2469 73.629 17.0079 72.419 17.2039C71.056 17.4259 69.887 16.8459 69.173 15.4909C68.86 14.8959 68.587 14.2779 68.315 13.6609C68.221 13.4459 68.125 13.2319 68.028 13.0179C66.817 10.3319 65.61 7.64591 64.405 4.95791C64.245 4.60091 64.093 4.2379 63.962 3.8699C63.396 2.2799 64.087 1.0979 65.752 0.798899C67.079 0.560899 67.849 0.952909 68.381 2.26791C69.056 3.93491 69.704 5.6129 70.353 7.2909L70.355 7.29591C70.621 7.98391 70.887 8.67191 71.155 9.35891C71.3 9.73091 71.445 10.1029 71.6 10.4999L71.973 11.4559ZM65.657 21.6289H67.283L69.747 26.4199L72.191 21.6289H73.816V29.0659H72.509V23.7319L70.193 28.3009H69.28L66.953 23.7319V29.0659H65.657V21.6289ZM81.147 29.0659L80.488 27.4929H76.855L76.196 29.0659H74.719L77.981 21.6289H79.457L82.676 29.0659H81.147ZM79.978 26.2709H77.365L78.682 23.1479L79.978 26.2709ZM88.233 29.0659L86.947 26.8659C86.891 26.8729 86.802 26.8769 86.682 26.8769H85.003V29.0659H83.579V21.6289H86.682C87.645 21.6289 88.388 21.8519 88.913 22.2979C89.437 22.7439 89.699 23.3749 89.699 24.1889C89.699 24.7699 89.573 25.2659 89.322 25.6769C89.07 26.0869 88.704 26.3949 88.222 26.6009L89.858 29.0659H88.233ZM86.682 25.6229H85.003V22.8719H86.682C87.22 22.8719 87.631 22.9849 87.914 23.2119C88.197 23.4379 88.339 23.7779 88.339 24.2319C88.339 24.6919 88.197 25.0389 87.914 25.2729C87.631 25.5069 87.22 25.6229 86.682 25.6229ZM90.167 21.6289H96.233V22.8929H93.917V29.0659H92.483V22.8929H90.167V21.6289Z" fill="#5C5C5C"/>
</svg>
