<svg width="111" height="93" viewBox="0 0 111 93" fill="none" xmlns="http://www.w3.org/2000/svg">
<path d="M0 18C0 8.05887 8.05888 0 18 0H92.1479C102.089 0 110.148 8.05887 110.148 18V74.2377C110.148 84.1788 102.089 92.2377 92.1479 92.2377H18C8.05887 92.2377 0 84.1788 0 74.2377V18Z" fill="url(#paint0_linear)"/>
<g clip-path="url(#clip0)">
<path fill-rule="evenodd" clip-rule="evenodd" d="M9.88472 35.5209C11.1785 33.77 12.8001 32.977 14.8319 33.0309C16.894 33.0874 18.4003 34.0688 19.4519 35.8836C19.6055 35.6938 19.7158 35.5574 19.8255 35.421C21.7073 33.075 25.3254 32.2956 27.991 33.6981C29.8214 34.6609 30.7552 36.3225 30.9113 38.2755C31.0631 40.1777 31.0724 42.0929 31.0824 44.0062C31.0855 44.7006 31.0892 45.395 31.0997 46.0888C31.1084 46.7044 31.0799 47.3213 31.0508 47.937C31.0452 48.0591 31.0396 48.1806 31.034 48.3028C30.9807 49.5099 30.3468 50.1894 29.1435 50.2663C28.61 50.2998 28.0511 50.2973 27.5356 50.1764C26.5138 49.9365 26.0268 49.2594 26.0379 48.2098C26.0491 47.1397 26.0646 46.0695 26.0807 44.9994C26.1005 43.6751 26.1203 42.3508 26.1309 41.0265C26.1346 40.4883 26.1061 39.9396 26.0082 39.412C25.8434 38.5229 25.4809 37.7268 24.5266 37.4348C23.5129 37.1242 22.5767 37.335 21.7693 38.0263C21.004 38.6822 20.7333 39.562 20.7246 40.5348C20.7153 41.471 20.7122 42.4084 20.7091 43.3453C20.706 44.2294 20.7029 45.1135 20.6948 45.9976C20.6874 46.767 20.6632 47.5389 20.6267 48.309C20.5771 49.3568 19.916 50.1175 18.8799 50.2496C18.3824 50.3141 17.8594 50.3091 17.3631 50.2328C16.2645 50.0636 15.7 49.3772 15.708 48.2612C15.7136 47.4118 15.7266 46.5618 15.7396 45.7124C15.7638 44.1178 15.788 42.5225 15.7657 40.9285C15.7551 40.1628 15.5971 39.3475 15.2892 38.6494C14.5592 36.9934 12.2183 36.7398 11.0298 38.1236C10.329 38.9408 10.1183 39.9408 10.1022 40.9676C10.0762 42.6341 10.0774 44.3019 10.0793 45.9703V45.971C10.0799 46.6331 10.0811 47.2947 10.0799 47.9568C10.0774 49.4479 9.37476 50.1956 7.88765 50.2855C7.67573 50.2986 7.46072 50.3029 7.24881 50.2948C5.74744 50.2384 4.98715 49.4634 5.00016 47.9618C5.01132 46.6815 5.02867 45.4018 5.04602 44.1221C5.06522 42.7116 5.08443 41.3017 5.09497 39.8906C5.1055 38.4497 5.08381 37.007 5.06213 35.5655L5.06027 35.413C5.04726 34.5568 5.21951 33.7762 6.06159 33.3831C7.02264 32.9348 8.0283 32.8406 8.98563 33.4085C9.51666 33.7235 9.71308 34.2734 9.79425 34.8643C9.8178 35.0385 9.84196 35.2127 9.88472 35.5209ZM53.373 44.5611C53.2404 44.6801 53.1245 44.7837 53.013 44.8903C52.5309 45.3534 52.0526 45.8203 51.5736 46.2872C50.5252 47.3095 49.4774 48.3313 48.3949 49.3146C46.9096 50.6637 45.117 51.4307 43.123 51.6229C38.6183 52.06 34.4947 49.2656 33.2672 44.9275C33.0026 43.9938 32.7752 42.9832 32.8477 42.0321C33.2554 36.6989 37.3456 33.2845 41.8602 33.1221C46.1314 32.9689 49.7178 35.7602 50.9564 39.2812C51.0388 39.5149 51.1101 39.7524 51.1888 40.0134C51.2284 40.1442 51.2693 40.2818 51.3152 40.4275C51.4868 40.2682 51.6535 40.1144 51.8165 39.9638C52.1684 39.6389 52.5024 39.3308 52.8308 39.0164C53.2974 38.5706 53.7621 38.1217 54.2268 37.6729L54.2275 37.6722C54.8954 37.0274 55.5634 36.3827 56.2375 35.7447C58.8425 33.2796 61.9344 32.5325 65.33 33.5015C68.8983 34.5196 71.0757 36.9971 71.8626 40.6216C72.9327 45.5494 69.4888 50.9719 63.7122 51.6198C59.2223 52.1226 54.9977 49.2173 53.7838 44.8767C53.7565 44.7787 53.7231 44.682 53.6822 44.5623L53.6816 44.5617C53.6599 44.4985 53.6357 44.4284 53.6091 44.3484C53.5242 44.4253 53.4467 44.4954 53.3742 44.5598L53.373 44.5611ZM42.2072 47.3368C44.9702 47.3325 47.1748 45.1259 47.173 42.3638C47.1717 39.6327 44.8921 37.3691 42.1775 37.3988C39.4034 37.4298 37.2204 39.6302 37.2229 42.3948C37.2248 45.1631 39.4214 47.3399 42.2072 47.3368ZM62.7387 47.3368C65.4979 47.3393 67.7309 45.1228 67.7309 42.3818C67.7309 39.6563 65.5048 37.4305 62.7418 37.3964C60.0291 37.3623 57.7693 39.6265 57.7693 42.3768C57.7693 45.1513 59.956 47.335 62.7387 47.3368ZM95.4192 45.8259C94.8305 45.2995 94.4389 44.659 94.3646 43.8078C94.434 43.801 94.4972 43.7935 94.556 43.7861H94.5566C94.6583 43.7737 94.7487 43.7631 94.8392 43.7613C95.3956 43.7507 95.9527 43.7414 96.5091 43.7328C97.2304 43.721 97.951 43.7098 98.6722 43.6943C99.0471 43.6863 99.422 43.6801 99.7969 43.6732C100.978 43.6522 102.16 43.6317 103.339 43.5672C104.528 43.5034 105.145 42.9379 105.348 41.8399C105.678 40.0593 105.334 38.4181 104.276 36.9375C101.479 33.0222 96.3003 33.0576 93.3738 35.0075C90.9312 36.635 89.6268 38.9402 89.2774 41.8579C88.7786 46.0286 91.6512 50.115 95.7587 50.9607C97.3908 51.2955 99.0186 51.1876 100.641 50.8907C101.782 50.6817 102.858 50.2973 103.816 49.6308C104.834 48.9246 105.093 47.746 104.493 46.6288C103.924 45.5655 102.972 45.227 101.782 45.6796C101.629 45.7378 101.483 45.8122 101.337 45.8873C101.205 45.9542 101.074 46.0212 100.938 46.0764C100.808 46.1284 100.679 46.1836 100.549 46.2382L100.548 46.2388C100.149 46.4074 99.7498 46.5767 99.3334 46.6765C97.9057 47.0194 96.5599 46.847 95.4192 45.8259ZM94.4482 40.6607H94.4476C94.4166 40.6483 94.38 40.6328 94.3348 40.6166C94.3571 40.5342 94.3763 40.4517 94.3955 40.3705V40.3693C94.4358 40.1975 94.4755 40.0295 94.538 39.8702C95.2128 38.1621 97.3183 37.2389 99.0223 37.9134C99.9759 38.2923 100.579 38.9761 100.722 40.019C100.76 40.2942 100.714 40.5236 100.371 40.5348C98.4411 40.5925 96.5116 40.6476 94.5814 40.6991C94.5436 40.7003 94.5052 40.6848 94.4482 40.6607ZM80.284 44.9895C80.3249 44.8934 80.3603 44.8134 80.3906 44.7434C80.4495 44.6082 80.4916 44.5115 80.5288 44.4129C81.6051 41.5764 82.6802 38.7405 83.7552 35.9046C83.7657 35.878 83.775 35.8513 83.7837 35.8247C83.7912 35.8048 83.798 35.7843 83.8054 35.7645C84.5304 33.8462 86.1699 33.3168 87.9006 34.4359C88.5605 34.863 88.8678 35.465 88.7439 36.2351C88.6608 36.7478 88.5506 37.2761 88.3393 37.7473C87.0715 40.5652 85.7882 43.3769 84.5056 46.1886L84.505 46.1898C84.0935 47.0925 83.6815 47.9946 83.2707 48.8974C82.7669 50.0047 82.0159 50.8008 80.75 51.006C79.3242 51.2391 78.1017 50.6315 77.3557 49.2136C77.0273 48.5898 76.7422 47.9438 76.4572 47.2984C76.358 47.0739 76.2589 46.8483 76.1579 46.6251C74.8914 43.814 73.628 41.0023 72.3676 38.1887C72.2003 37.8149 72.0417 37.4354 71.9041 37.0504C71.3118 35.3857 72.0355 34.1494 73.7767 33.8363C75.164 33.5877 75.9695 33.9969 76.5272 35.3739C77.2324 37.1186 77.9102 38.8738 78.5887 40.6297V40.6303C78.8682 41.3526 79.147 42.0743 79.4277 42.7953C79.5808 43.1884 79.7338 43.5809 79.898 44L80.284 44.9895ZM73.478 55.6374H75.1783L77.7566 60.6519L80.3125 55.6374H82.0128V63.4209H80.6459V57.839L78.2231 62.6198H77.2677L74.8338 57.839V63.4209H73.478V55.6374ZM89.6801 63.4209L88.9911 61.7748H85.1909L84.5019 63.4209H82.9571L86.3688 55.6374H87.9136L91.2806 63.4209H89.6801ZM88.4576 60.4963H85.7244L87.1019 57.2271L88.4576 60.4963ZM97.0922 63.4209L95.7476 61.1188C95.6881 61.1262 95.5958 61.13 95.47 61.13H93.7139V63.4209H92.225V55.6374H95.47C96.4775 55.6374 97.2551 55.8705 97.8035 56.338C98.3519 56.8048 98.6258 57.4645 98.6258 58.317C98.6258 58.9246 98.4944 59.4436 98.2311 59.8738C97.9683 60.3035 97.5848 60.6259 97.081 60.841L98.7924 63.4209H97.0922ZM95.47 59.818H93.7139V56.9381H95.47C96.0326 56.9381 96.4626 57.0566 96.7588 57.294C97.055 57.5309 97.2031 57.8867 97.2031 58.3617C97.2031 58.8434 97.055 59.2067 96.7588 59.451C96.4626 59.6959 96.0326 59.818 95.47 59.818ZM99.3148 55.6374H105.66V56.9605H103.238V63.4209H101.738V56.9605H99.3148V55.6374Z" fill="white"/>
</g>
<defs>
<linearGradient id="paint0_linear" x1="-244" y1="-65.389" x2="-80.7941" y2="208.325" gradientUnits="userSpaceOnUse">
<stop stop-color="#C6EBFF"/>
<stop offset="1" stop-color="#0288D1"/>
</linearGradient>
<clipPath id="clip0">
<rect width="101" height="31" fill="white" transform="translate(5 33)"/>
</clipPath>
</defs>
</svg>
