<?xml version="1.0" encoding="UTF-8"?>
<svg width="64px" height="69px" viewBox="0 0 64 69" version="1.1" xmlns="http://www.w3.org/2000/svg" xmlns:xlink="http://www.w3.org/1999/xlink">
    <!-- Generator: Sketch 54.1 (76490) - https://sketchapp.com -->
    <title>Combined Shape</title>
    <desc>Created with Sketch.</desc>
    <defs>
        <linearGradient x1="7.98611111%" y1="0%" x2="92.0138889%" y2="100%" id="linearGradient-1">
            <stop stop-color="#38B8F2" offset="0%"></stop>
            <stop stop-color="#843CF6" offset="100%"></stop>
        </linearGradient>
    </defs>
    <g id="Stage-2" stroke="none" stroke-width="1" fill="none" fill-rule="evenodd">
        <g id="iPad-Pro-Copy" transform="translate(-1048.000000, -531.000000)" fill="url(#linearGradient-1)">
            <g id="Group-23" transform="translate(1018.000000, 490.000000)">
                <g id="Group-22" transform="translate(30.000000, 41.000000)">
                    <path d="M28.9009116,22.079981 L63.227459,14.369877 C63.227459,26.898796 63.227459,39.427715 63.227459,51.956634 C62.5022503,61.8352048 42.1964053,62.7989678 42.1964053,51.956634 C42.1964053,44.7284115 53.3162728,42.319004 59.359679,45.9331153 L59.359679,25.4531515 L32.7686916,31.4766703 L32.7686916,61.1123825 C32.0434828,71.231894 11.4959016,71.9547163 11.4959016,61.1123825 C11.4959016,54.1251008 22.8575054,51.4747525 28.9009116,55.3298045 C28.9009116,44.24653 28.9009116,33.1632555 28.9009116,22.079981 Z M16.916249,6.69733194 L45.9836065,7.10542736e-14 L45.9836065,10.2851883 L20.7283615,15.7865682 L20.7283615,42.0975151 C20.0135904,51.9043226 -1.38555833e-13,52.8610843 -1.38555833e-13,42.0975151 C-1.38555833e-13,34.9218023 10.9598233,32.529898 16.916249,36.1177544 C16.916249,25.1149948 16.916249,17.4609011 16.916249,6.69733194 Z" id="Combined-Shape"></path>
                </g>
            </g>
        </g>
    </g>
</svg>