<?xml version="1.0" encoding="UTF-8"?>
<svg width="64px" height="66px" viewBox="0 0 64 66" version="1.1" xmlns="http://www.w3.org/2000/svg" xmlns:xlink="http://www.w3.org/1999/xlink">
    <!-- Generator: Sketch 54.1 (76490) - https://sketchapp.com -->
    <title>Combined Shape</title>
    <desc>Created with Sketch.</desc>
    <defs>
        <linearGradient x1="2.29135877%" y1="0%" x2="97.7086412%" y2="100%" id="linearGradient-1">
            <stop stop-color="#F030C1" offset="0%"></stop>
            <stop stop-color="#6094EA" offset="100%"></stop>
        </linearGradient>
    </defs>
    <g id="Stage-2" stroke="none" stroke-width="1" fill="none" fill-rule="evenodd">
        <g id="iPad-Pro-Copy" transform="translate(-80.000000, -1052.000000)" fill="url(#linearGradient-1)" fill-rule="nonzero">
            <g id="Group-26" transform="translate(50.000000, 1010.000000)">
                <g id="Group-25" transform="translate(30.000000, 42.000000)">
                    <path d="M31.7660709,11.1146944 C43.1552022,11.1146944 52.4174475,20.3769397 52.5546659,31.8346801 C52.5546659,37.0489812 50.6336076,41.7144085 47.4775833,45.3506974 C46.5856634,44.0471221 45.4193066,42.8807653 44.1157313,41.9202361 C46.3112265,39.1758672 47.683411,35.7454059 47.683411,31.9032894 C47.683411,23.1899179 40.6166609,16.0545585 31.8346801,16.0545585 C23.0526994,16.0545585 15.9859493,23.1899179 15.9859493,31.9032894 C15.9859493,35.6767967 17.2895246,39.1758672 19.553629,41.9202361 C18.2500537,42.8807653 17.0836969,44.0471221 16.191777,45.3506974 C12.9671434,41.7144085 11.1146944,36.980372 11.1146944,31.8346801 C11.1146944,20.3769397 20.3769397,11.1146944 31.7660709,11.1146944 Z M31.7660709,4.26325641e-14 C49.2614232,4.26325641e-14 63.5321418,14.2707187 63.6007511,31.9032894 C63.6007511,42.4691099 58.4550592,51.7999645 50.5649984,57.5631393 L50.0161246,52.2116198 C49.9475154,52.0057921 49.9475154,51.8685737 49.9475154,51.7313552 C55.3676441,46.7914911 58.7294961,39.724741 58.7294961,31.8346801 C58.7294961,16.9464784 46.6542726,4.87125494 31.7660709,4.87125494 C16.8778692,4.87125494 4.80264571,16.9464784 4.87125494,31.8346801 C4.87125494,39.724741 8.23310693,46.7914911 13.6532357,51.7313552 C13.5846264,51.7999645 13.5846264,51.9371829 13.5846264,52.0744014 L13.0357526,57.4945301 C5.14569183,51.7313552 2.82796009e-12,42.4005007 2.82796009e-12,31.8346801 C2.82796009e-12,14.2707187 14.2707187,4.26325641e-14 31.7660709,4.26325641e-14 Z M35.2651414,43.7726852 C40.342224,43.7726852 44.5959959,47.6148018 45.1448697,52.5546659 L46.0367896,61.8169112 C46.1740081,63.6007511 44.8018236,65.110154 43.0179837,65.110154 L20.4455489,65.110154 C18.661709,65.110154 17.2209153,63.6007511 17.426743,61.8169112 L18.3186629,52.5546659 C18.9361459,47.5461925 23.1899179,43.7726852 28.2670005,43.7726852 L35.2651414,43.7726852 Z M31.7660709,41.2341439 C26.5748904,41.2341439 22.3666072,37.0258606 22.3666072,31.8346801 C22.3666072,26.6434997 26.5748904,22.4352164 31.7660709,22.4352164 C36.9572514,22.4352164 41.1655347,26.6434997 41.1655347,31.8346801 C41.1655347,37.0258606 36.9572514,41.2341439 31.7660709,41.2341439 Z" id="Combined-Shape"></path>
                </g>
            </g>
        </g>
    </g>
</svg>