<?xml version="1.0" encoding="UTF-8"?>
<svg width="64px" height="60px" viewBox="0 0 64 60" version="1.1" xmlns="http://www.w3.org/2000/svg" xmlns:xlink="http://www.w3.org/1999/xlink">
    <!-- Generator: Sketch 54.1 (76490) - https://sketchapp.com -->
    <title>Shape</title>
    <desc>Created with Sketch.</desc>
    <defs>
        <linearGradient x1="50%" y1="0%" x2="50%" y2="100%" id="linearGradient-1">
            <stop stop-color="#3AA17E" offset="0%"></stop>
            <stop stop-color="#00537E" offset="100%"></stop>
        </linearGradient>
    </defs>
    <g id="Stage-2" stroke="none" stroke-width="1" fill="none" fill-rule="evenodd">
        <g id="iPad-Pro-Copy" transform="translate(-725.000000, -535.000000)" fill="url(#linearGradient-1)" fill-rule="nonzero">
            <g id="Group-17" transform="translate(695.000000, 490.000000)">
                <g id="Group-16" transform="translate(30.000000, 45.000000)">
                    <path d="M20.359229,59.6132834 C16.0787548,57.9551356 12.516855,55.635221 9.27673996,52.3951062 C4.05634963,47.1747159 0.974786188,40.7057331 0.105959721,33.1433107 C-0.0353199069,31.9135897 -0.0353199069,28.0191265 0.105959721,26.7894054 C0.974786188,19.2269831 4.05634963,12.7580002 9.27673996,7.53760991 C11.9229362,4.89141242 14.7215969,2.90692951 18.0408276,1.32313839 C19.0949913,0.820138125 20.4912442,0.237699958 21.062697,0.0625848774 L21.2669297,-1.70530257e-13 L21.2669297,2.39165684 L21.2669297,4.78331398 L20.0817419,5.34270308 C12.3055364,9.01294676 6.70066635,16.1815998 5.01996184,24.6067874 C4.61294447,26.6471208 4.51995162,27.6439011 4.51995162,29.9663581 C4.51995162,32.288815 4.61294447,33.2855953 5.01996184,35.3259287 C6.70066635,43.7511163 12.3055364,50.9197693 20.0817419,54.590013 L21.2669297,55.1494021 L21.2669297,57.5349428 C21.2669297,58.8469894 21.2362952,59.91861 21.1988522,59.9163219 C21.1614099,59.9140345 20.7835791,59.7776659 20.359229,59.6132834 Z M42.1440469,57.5410593 L42.1440469,55.1494021 L43.329234,54.590013 C51.1054431,50.9197693 56.7103064,43.7511163 58.3910124,35.3259287 C58.7980327,33.2855953 58.8910248,32.288815 58.8910248,29.9663581 C58.8910248,27.6439011 58.7980327,26.6471208 58.3910124,24.6067874 C56.7103064,16.1815998 51.1054431,9.01294676 43.329234,5.34270308 L42.1440469,4.78331398 L42.1440469,2.39165684 L42.1440469,-2.27373675e-13 L42.3482796,0.0625848774 C42.9197324,0.237699958 44.3159846,0.820138125 45.3701483,1.32313839 C48.6893761,2.90692951 51.4880426,4.89141242 54.1342372,7.53760991 C59.3546275,12.7580002 62.4361917,19.2269831 63.3050138,26.7894054 C63.3652416,27.3136026 63.4145116,28.7432313 63.4145116,29.9663581 C63.4145116,31.1894848 63.3652416,32.6191135 63.3050138,33.1433107 C62.4361917,40.7057331 59.3546275,47.1747159 54.1342372,52.3951062 C51.4880426,55.0413037 48.6893761,57.0257866 45.3701483,58.6095777 C44.3159846,59.1125783 42.9197324,59.6950164 42.3482796,59.8701315 L42.1440469,59.9327164 L42.1440469,57.5410593 L42.1440469,57.5410593 Z M17.2276614,47.4126939 C12.8456961,43.8035806 9.93468576,38.4443339 9.18106249,32.5986902 C9.11991904,32.1244166 9.06989239,30.9398671 9.06989239,29.9663581 C9.06989239,28.992849 9.11991904,27.8082995 9.18106249,27.3340259 C9.73537791,23.0343643 11.4134227,19.0559504 14.0816301,15.7154563 C14.8968856,14.6947875 16.3135508,13.2612702 17.2957389,12.463113 L17.999207,11.8914517 L17.999207,13.7580686 L17.999207,15.6246862 L19.272319,15.6246862 L20.5454303,15.6246862 L19.9304021,16.156381 C17.9768928,17.8451982 16.4683399,19.8057694 15.3658045,22.0886992 C12.3754396,28.2806053 13.136429,35.5642822 17.3505866,41.0856922 C17.5792081,41.3852335 18.1927622,42.0694126 18.7140395,42.606091 L19.6618171,43.5818693 L18.832098,43.5818693 L18.0023782,43.5818693 L17.9781004,45.7963251 L17.953822,48.0107816 L17.2276614,47.4126939 Z M45.4117696,45.8115672 L45.4117696,43.5818693 L44.5804646,43.5818693 L43.7491596,43.5818693 L44.6969371,42.606091 C46.1999298,41.0586936 47.1347839,39.7290826 48.04517,37.8440169 C51.0352742,31.6526591 50.2717018,24.3491108 46.0590815,18.8470239 C45.5229245,18.1467509 44.267228,16.8364464 43.4805746,16.156381 L42.8655463,15.6246862 L44.1386576,15.6246862 L45.4117696,15.6246862 L45.4117696,13.7580686 L45.4117696,11.8914517 L46.1152377,12.463113 C50.5104707,16.0348225 53.4731769,21.4642621 54.2299161,27.3340259 C54.2910588,27.8082995 54.341084,28.992849 54.341084,29.9663581 C54.341084,30.9398671 54.2910588,32.1244166 54.2299161,32.5986902 C53.6756014,36.8983518 51.9975532,40.8767657 49.3293487,44.2172598 C48.5140882,45.2379286 47.0974258,46.6714459 46.1152377,47.4696032 L45.4117696,48.0412644 L45.4117696,45.8115672 L45.4117696,45.8115672 Z M30.5481408,38.9527218 C26.8243283,38.4282879 23.8923968,35.8137416 22.9259344,32.1556306 C22.7296328,31.4126202 22.6952615,31.0864099 22.6952615,29.9663581 C22.6952615,28.8463062 22.7296328,28.5200959 22.9259344,27.7770855 C23.799255,24.4715204 26.2106514,22.0601248 29.5162158,21.1868041 C30.2592262,20.9905033 30.5854364,20.9561312 31.7054883,20.9561312 C32.8255402,20.9561312 33.1517504,20.9905033 33.8947609,21.1868041 C37.2003252,22.0601248 39.6117216,24.4715204 40.4850423,27.7770855 C40.6813431,28.5200959 40.7157152,28.8463062 40.7157152,29.9663581 C40.7157152,31.0864099 40.6813431,31.4126202 40.4850423,32.1556306 C39.6126438,35.4577058 37.1638531,37.9074478 33.9105019,38.7327286 C32.9410375,38.9786537 31.4329174,39.0773273 30.5481408,38.9527218 Z" id="Shape"></path>
                </g>
            </g>
        </g>
    </g>
</svg>