<?xml version="1.0" encoding="UTF-8"?>
<svg width="28px" height="28px" viewBox="0 0 28 28" version="1.1" xmlns="http://www.w3.org/2000/svg" xmlns:xlink="http://www.w3.org/1999/xlink">
    <!-- Generator: Sketch 54.1 (76490) - https://sketchapp.com -->
    <title>Shape</title>
    <desc>Created with Sketch.</desc>
    <g id="Stage-2" stroke="none" stroke-width="1" fill="none" fill-rule="evenodd">
        <g id="iPad-Pro-Copy" transform="translate(-1173.000000, -39.000000)" fill="#FFFFFF" fill-rule="nonzero">
            <g id="Group-5">
                <g id="Group-20" transform="translate(695.000000, 39.000000)">
                    <path d="M505.615179,25.7573463 L499.051984,19.193863 C500.670943,17.1707322 501.645944,14.6100265 501.645944,11.8234922 C501.645944,5.30362446 496.341896,0 489.822972,0 C483.304048,0 478,5.30362446 478,11.8234922 C478,18.3433598 483.304048,23.6469843 489.822972,23.6469843 C492.610698,23.6469843 495.171291,22.6719403 497.194332,21.0515964 L503.757527,27.6150796 C504.014086,27.8716494 504.350252,28 504.686287,28 C505.022322,28 505.358489,27.8716494 505.615047,27.6150796 C506.128296,27.1019401 506.128296,26.2706172 505.615179,25.7573463 Z M480.627327,11.8234922 C480.627327,6.75331597 484.752362,2.6274427 489.822972,2.6274427 C494.893582,2.6274427 499.018617,6.75331597 499.018617,11.8234922 C499.018617,16.8936683 494.893582,21.0195416 489.822972,21.0195416 C484.752362,21.0195416 480.627327,16.8936683 480.627327,11.8234922 Z" id="Shape"></path>
                </g>
            </g>
        </g>
    </g>
</svg>