<?xml version="1.0" encoding="UTF-8"?>
<svg width="23px" height="26px" viewBox="0 0 23 26" version="1.1" xmlns="http://www.w3.org/2000/svg" xmlns:xlink="http://www.w3.org/1999/xlink">
    <!-- Generator: Sketch 54.1 (76490) - https://sketchapp.com -->
    <title>Combined Shape</title>
    <desc>Created with Sketch.</desc>
    <g id="Stage-2" stroke="none" stroke-width="1" fill="none" fill-rule="evenodd">
        <g id="iPad-Pro-Copy" transform="translate(-1024.000000, -41.000000)" fill="#FFFFFF" fill-rule="nonzero">
            <g id="Group-5">
                <g id="Group-20" transform="translate(695.000000, 39.000000)">
                    <g id="Group-4" transform="translate(0.000000, 1.000000)">
                        <g id="Group-2" transform="translate(329.000000, 0.000000)">
                            <g id="Group-10">
                                <path d="M20.8265283,23.0280666 L14.0178556,23.0280666 L14.0178556,25.8316377 L17.4221919,25.8316377 C17.6432735,25.8316377 17.8227021,26.0110662 17.8227021,26.2321478 C17.8227021,26.4532294 17.6432735,26.632658 17.4221919,26.632658 L14.0178556,26.632658 L8.41071334,26.632658 L5.00637699,26.632658 C4.78529538,26.632658 4.60586683,26.4532294 4.60586683,26.2321478 C4.60586683,26.0110662 4.78529538,25.8316377 5.00637699,25.8316377 L8.41071334,25.8316377 L8.41071334,23.0280666 L1.60204064,23.0280666 C0.720918286,23.0280666 -1.59872116e-14,22.3071483 -1.59872116e-14,21.4260259 L-1.59872116e-14,9.41072117 C-1.59872116e-14,8.52959882 0.720918286,7.80868053 1.60204064,7.80868053 L9.44002445,7.80868053 L5.0798706,1.63161235 C4.95210786,1.45098227 4.99536296,1.20106393 5.17599304,1.07350144 C5.35662312,0.945938956 5.60654146,0.989194054 5.73410395,1.16962388 L10.4204733,7.80868053 L12.0080956,7.80868053 L16.6946652,1.16942363 C16.822428,0.988993799 17.0719458,0.945738701 17.2527761,1.07330119 C17.4334062,1.20086367 17.4766613,1.45078201 17.3488986,1.63141209 L12.9883442,7.80868053 L20.8265283,7.80868053 C21.7076506,7.80868053 22.4285689,8.52959882 22.4285689,9.41072117 L22.4285689,21.4260259 C22.4285689,22.3071483 21.7076506,23.0280666 20.8265283,23.0280666 Z M13.2168352,25.8316377 L13.2168352,23.0280666 L9.21173366,23.0280666 L9.21173366,25.8316377 L13.2168352,25.8316377 Z M1.60076524,8.40943794 C1.04848049,8.40943794 0.600765238,8.85715319 0.600765238,9.40943794 L0.600765238,21.4272935 C0.600765238,21.9795783 1.04848049,22.4272935 1.60076524,22.4272935 L20.8278037,22.4272935 C21.3800884,22.4272935 21.8278037,21.9795783 21.8278037,21.4272935 L21.8278037,9.40943794 C21.8278037,8.85715319 21.3800884,8.40943794 20.8278037,8.40943794 L1.60076524,8.40943794 Z M2.0012754,8.8099481 L20.4272935,8.8099481 C20.9795783,8.8099481 21.4272935,9.25766335 21.4272935,9.8099481 L21.4272935,21.0267833 C21.4272935,21.5790681 20.9795783,22.0267833 20.4272935,22.0267833 L2.0012754,22.0267833 C1.44899065,22.0267833 1.0012754,21.5790681 1.0012754,21.0267833 L1.0012754,9.8099481 C1.0012754,9.25766335 1.44899065,8.8099481 2.0012754,8.8099481 Z" id="Combined-Shape"></path>
                            </g>
                        </g>
                    </g>
                </g>
            </g>
        </g>
    </g>
</svg>