<?xml version="1.0" encoding="UTF-8"?>
<svg width="33px" height="33px" viewBox="0 0 33 33" version="1.1" xmlns="http://www.w3.org/2000/svg" xmlns:xlink="http://www.w3.org/1999/xlink">
    <!-- Generator: Sketch 54.1 (76490) - https://sketchapp.com -->
    <title>Group 2</title>
    <desc>Created with Sketch.</desc>
    <g id="Music" stroke="none" stroke-width="1" fill="none" fill-rule="evenodd">
        <g id="Music-Copy" transform="translate(-678.000000, -17.000000)" fill="#FFFFFF">
            <g id="Group-2" transform="translate(678.000000, 17.000000)">
                <circle id="Oval-2-Copy" opacity="0.200000003" cx="16.5" cy="16.5" r="16.5"></circle>
                <g id="Group-5" transform="translate(8.684211, 8.684211)">
                    <path d="M7.38157895,2.27125506 C4.56596083,2.27125506 2.27125506,4.56596083 2.27125506,7.38157895 C2.27125506,10.1971971 4.56596083,12.4919028 7.38157895,12.4919028 C10.1971971,12.4919028 12.4919028,10.1971971 12.4919028,7.38157895 C12.4919028,4.56596083 10.1971971,2.27125506 7.38157895,2.27125506 Z M7.38157895,3.40688259 C9.58344717,3.40688259 11.3562753,5.17971073 11.3562753,7.38157895 C11.3562753,9.58344717 9.58344717,11.3562753 7.38157895,11.3562753 C5.17971073,11.3562753 3.40688259,9.58344717 3.40688259,7.38157895 C3.40688259,5.17971073 5.17971073,3.40688259 7.38157895,3.40688259 Z" id="Shape"></path>
                    <circle id="Oval" cx="7.38157895" cy="7.38157895" r="1.13562753"></circle>
                    <path d="M3.97469636,7.31469193e-15 C3.12536053,7.31469193e-15 2.48015374,-0.00225200617 1.94629524,0.057667166 C1.41243674,0.117586338 0.943479352,0.24799834 0.596601923,0.594427196 C0.249764241,0.940861731 0.119008087,1.40992133 0.0587289777,1.94412052 C-0.00155013158,2.47831971 -5.11032389e-05,3.12426465 -5.11032389e-05,3.9747361 L-5.11032389e-05,10.7885013 C-5.11032389e-05,11.6378371 -0.00230532389,12.2830439 0.0576160628,12.8169024 C0.117537449,13.3507552 0.247947237,13.8197183 0.594376093,14.1665957 C0.940804949,14.5134731 1.40987022,14.6441896 1.94406941,14.704463 C2.47822318,14.7647421 3.12421354,14.7632431 3.974685,14.7632431 L10.7884502,14.7632431 C11.637786,14.7632431 12.2829928,14.7655143 12.8168513,14.7055759 C13.3507041,14.6456545 13.8196672,14.5152447 14.1665446,14.1688159 C14.513422,13.822387 14.6441385,13.3533217 14.7044119,12.8191226 C14.764691,12.2849688 14.763192,11.6389784 14.763192,10.788507 L14.763192,3.97474178 C14.763192,3.12540595 14.7654433,2.48019917 14.7055248,1.94634067 C14.6456034,1.41248784 14.5151936,0.943524777 14.1687648,0.596647348 C13.8223302,0.249809666 13.3532706,0.119053512 12.8190714,0.0587744028 C12.2848723,-0.00150470648 11.6389273,-5.67813764e-06 10.7884559,-5.67813764e-06 L3.97469068,-5.67813764e-06 L3.97469636,7.31469193e-15 Z M3.97469636,1.13562753 L10.7884615,1.13562753 C11.6383084,1.13562753 12.2680706,1.13885822 12.6915462,1.18664219 C13.1149933,1.23442656 13.2855929,1.31815921 13.365825,1.39846512 C13.4460344,1.47876534 13.5290147,1.64937066 13.576535,2.07274396 C13.6240553,2.49611726 13.6275497,3.12569781 13.6275497,3.97469295 L13.6275497,10.7884581 C13.6275497,11.638305 13.6243109,12.2680672 13.576535,12.6915427 C13.5287535,13.1149899 13.445018,13.2855895 13.3647121,13.3658216 C13.2844119,13.446031 13.1138065,13.5290113 12.6904332,13.5765316 C12.2670543,13.6240519 11.6374794,13.6275463 10.7884843,13.6275463 L3.97471907,13.6275463 C3.12487221,13.6275463 2.49510996,13.6243075 2.07163445,13.5765316 C1.64819302,13.5287501 1.47758769,13.4450146 1.39735561,13.3647087 C1.31714623,13.2844028 1.23416593,13.1138031 1.1866456,12.6904298 C1.13912526,12.2670565 1.13563094,11.637476 1.13563094,10.7884808 L1.13563094,3.97471566 C1.13563094,3.1248688 1.13886117,2.49510655 1.1866456,2.07163105 C1.23442996,1.64818961 1.31816262,1.47758429 1.39846852,1.3973522 C1.47876874,1.31714283 1.64937407,1.23416252 2.07274737,1.18664219 C2.49612067,1.13912186 3.12570121,1.13562753 3.97469636,1.13562753 L3.97469636,1.13562753 Z" id="Shape"></path>
                </g>
            </g>
        </g>
    </g>
</svg>