<?xml version="1.0" encoding="UTF-8"?>
<svg width="33px" height="33px" viewBox="0 0 33 33" version="1.1" xmlns="http://www.w3.org/2000/svg" xmlns:xlink="http://www.w3.org/1999/xlink">
    <!-- Generator: Sketch 54.1 (76490) - https://sketchapp.com -->
    <title>Group</title>
    <desc>Created with Sketch.</desc>
    <g id="Music" stroke="none" stroke-width="1" fill="none" fill-rule="evenodd">
        <g id="Music-Copy" transform="translate(-565.000000, -17.000000)" fill="#FFFFFF">
            <g id="Group" transform="translate(565.000000, 17.000000)">
                <circle id="Oval-2" opacity="0.200000003" cx="16.5" cy="16.5" r="16.5"></circle>
                <g id="Group-4" transform="translate(8.684211, 7.815789)" fill-rule="nonzero">
                    <path d="M0.105,13.9133333 L0.105,15.6666667 C0.105,15.8967853 0.291548021,16.0833333 0.521666667,16.0833333 L5.90666667,16.0833333 C6.13678531,16.0833333 6.32333333,15.8967853 6.32333333,15.6666667 C6.32333333,15.436548 6.13678531,15.25 5.90666667,15.25 L0.938333333,15.25 L0.938333333,13.9166667 C0.937873967,13.1656812 1.38400344,12.4863328 2.07333333,12.1883333 L5.915,10.5216667 C6.06632286,10.4564183 6.16497373,10.3081153 6.16666667,10.1433333 L6.16666667,8.795 C6.16655159,8.64794465 6.11922973,8.50481064 6.03166667,8.38666667 C5.68982749,7.89120452 5.47674991,7.31841535 5.41166667,6.72 C5.3979327,6.60170658 5.33423859,6.49494312 5.23666667,6.42666667 C4.86188615,6.16570567 4.63794419,5.73834976 4.63666667,5.28166667 C4.6357638,5.19853183 4.66959311,5.11879131 4.73,5.06166667 C4.79094923,5.00366585 4.87256885,4.97245835 4.95666667,4.975 C5.06916927,4.97951078 5.17870854,4.93829931 5.2603384,4.86075094 C5.34196826,4.78320258 5.38873928,4.67591927 5.39,4.56333333 L5.40333333,3.29166667 C5.40267145,3.00650708 5.45582352,2.72378331 5.56,2.45833333 C5.875,1.66666667 6.67833333,0.833333333 7.69333333,0.833333333 L7.95833333,0.833333333 L7.95833333,1.29166667 C7.95811651,1.50581169 8.1202616,1.68525226 8.33333333,1.70666667 C8.97384857,1.80139223 9.54491531,2.16133365 9.90666667,2.69833333 C10.0652182,2.91937754 10.1503351,3.18463908 10.15,3.45666667 L10.15,4.55333333 C10.15,4.78345198 10.336548,4.97 10.5666667,4.97 L10.5666667,4.97 C10.6486699,4.97064168 10.7271161,5.00357709 10.785,5.06166667 C10.8427194,5.11884753 10.8746206,5.19709592 10.8733333,5.27833333 C10.8716679,5.72564533 10.656855,6.14536616 10.295,6.40833333 C10.20138,6.47747998 10.1409479,6.58263184 10.1283333,6.69833333 C10.0646979,7.3160268 9.84251481,7.90679277 9.48333333,8.41333333 C9.39401694,8.53242186 9.37501816,8.69011393 9.43349365,8.82700847 C9.49196914,8.963903 9.61903509,9.05920246 9.76682698,9.07700847 C9.91461887,9.09481447 10.0606836,9.03242186 10.15,8.91333333 C10.5659687,8.33617639 10.8348534,7.66625294 10.9333333,6.96166667 C11.4235972,6.53810382 11.70628,5.92288886 11.7083333,5.275 C11.7092976,4.9728968 11.589252,4.68298676 11.375,4.47 C11.2634294,4.35848783 11.1301104,4.27112132 10.9833333,4.21333333 L10.9833333,3.455 C10.985063,3.00658484 10.8437766,2.56929742 10.58,2.20666667 C10.1487527,1.59059028 9.51643936,1.14390482 8.79166667,0.943333333 L8.79166667,0.416666667 C8.79166667,0.186548021 8.60511865,0 8.375,0 L7.69333333,0 C6.29333333,0 5.205,1.10833333 4.785,2.13666667 C4.64151126,2.49959666 4.56799576,2.88640127 4.56833333,3.27666667 L4.55833333,4.20333333 C4.40647328,4.25824495 4.26790202,4.34456803 4.15166667,4.45666667 C3.92799234,4.67064794 3.80205019,4.9671242 3.80333333,5.27666667 C3.80438262,5.93888016 4.09925694,6.56648018 4.60833333,6.99 C4.70294862,7.65565659 4.95116032,8.2901656 5.33333333,8.84333333 L5.33333333,9.86833333 L1.74333333,11.42 C0.748597663,11.8497072 0.104624014,12.8297526 0.105,13.9133333 Z" id="Shape"></path>
                    <path d="M14.23,9.69 C14.2300757,9.55972301 14.1692135,9.43690897 14.0655045,9.35806394 C13.9617955,9.27921891 13.827178,9.25341907 13.7016667,9.28833333 L10.1116667,10.2883333 C9.93131209,10.3385036 9.80655789,10.5027974 9.80666667,10.69 L9.80666667,13.6666667 C9.59807485,13.5687447 9.37043262,13.5180943 9.14,13.5183333 C8.37206329,13.5655127 7.78293903,14.2182933 7.81452501,14.9870293 C7.84611099,15.7557653 8.48680221,16.358015 9.25602085,16.3420354 C10.0252395,16.3260558 10.6403667,15.6977179 10.64,14.9283333 C10.64,14.9166667 10.64,14.905 10.64,14.8933333 C10.64,14.8816667 10.64,14.8816667 10.64,14.875 L10.64,11 L13.3966667,10.2366667 L13.3966667,12.6666667 C13.1880748,12.5687447 12.9604326,12.5180943 12.73,12.5183333 C11.9620633,12.5655127 11.372939,13.2182933 11.404525,13.9870293 C11.436111,14.7557653 12.0768022,15.358015 12.8460209,15.3420354 C13.6152395,15.3260558 14.2303667,14.6977179 14.23,13.9283333 C14.23,13.9166667 14.23,13.905 14.23,13.8933333 C14.23,13.8816667 14.23,13.8816667 14.23,13.875 L14.23,9.69 Z M9.14,15.5 C8.83177207,15.4555109 8.61284687,15.1767507 8.64268388,14.8667613 C8.6725209,14.5567718 8.94059662,14.3248863 9.25165157,14.3400042 C9.56270652,14.3551221 9.80703159,14.6119114 9.80666667,14.9233333 C9.78003,15.2657725 9.48270544,15.5229583 9.14,15.5 L9.14,15.5 Z M12.7283333,14.5 C12.4201054,14.4555109 12.2011802,14.1767507 12.2310172,13.8667613 C12.2608542,13.5567718 12.5289299,13.3248863 12.8399849,13.3400042 C13.1510399,13.3551221 13.3953649,13.6119114 13.395,13.9233333 C13.3683573,14.2650801 13.0720767,14.5220051 12.73,14.5 L12.7283333,14.5 Z" id="Shape"></path>
                </g>
            </g>
        </g>
    </g>
</svg>