<?xml version="1.0" encoding="UTF-8"?>
<svg width="140px" height="70px" viewBox="0 0 140 70" version="1.1" xmlns="http://www.w3.org/2000/svg" xmlns:xlink="http://www.w3.org/1999/xlink">
    <!-- Generator: Sketch 54.1 (76490) - https://sketchapp.com -->
    <title>Group 22</title>
    <desc>Created with Sketch.</desc>
    <defs>
        <linearGradient x1="0%" y1="0%" x2="100%" y2="100%" id="linearGradient-1">
            <stop stop-color="#51C2FF" offset="0%"></stop>
            <stop stop-color="#0288D1" offset="100%"></stop>
        </linearGradient>
    </defs>
    <g id="Audio-Books" stroke="none" stroke-width="1" fill="none" fill-rule="evenodd">
        <g id="iPad-Pro-Copy-2" transform="translate(-50.000000, -133.000000)">
            <g id="Group-7" transform="translate(50.000000, 133.000000)">
                <g id="Group-22">
                    <path d="M8,0 L132,0 C136.418278,-8.11624501e-16 140,3.581722 140,8 L140,70 L0,70 L0,8 C-5.41083001e-16,3.581722 3.581722,8.11624501e-16 8,0 Z" id="Rectangle" fill="#FFFFFF"></path>
                    <g id="Group-27" transform="translate(15.000000, 14.000000)">
                        <g id="Group-19">
                            <path d="M19.8844241,40.8436819 L-5.68434189e-14,35.5248495 L-5.68434189e-14,6.44900241 L19.8844241,11.7678348 L19.8844241,40.8436819 L19.8844241,40.8436819 Z M31.1701783,-1.27897692e-13 L20.9592578,9.13608674 L31.1701783,2.83643623 L31.1701783,-1.27897692e-13 L31.1701783,-1.27897692e-13 Z M9.67350361,-1.27897692e-13 L9.67350361,2.83643623 L19.8844241,9.13608674 L9.67350361,-1.27897692e-13 L9.67350361,-1.27897692e-13 Z M3.2245012,1.07483373 L3.2245012,5.7085601 L19.3470072,10.2109205 L3.2245012,1.07483373 L3.2245012,1.07483373 Z M20.9592578,40.8436819 L20.9592578,11.7678348 L40.8436819,6.44900241 L40.8436819,35.5248495 L20.9592578,40.8436819 L20.9592578,40.8436819 Z M37.0817638,1.07483373 L37.0817638,5.7085601 L20.9592578,10.2109205 L37.0817638,1.07483373 Z" id="Shape" fill="url(#linearGradient-1)" fill-rule="nonzero"></path>
                            <path d="M41,42 C34.1578056,42 28.6111111,36.4533055 28.6111111,29.6111111 C28.6111111,22.7689167 34.1578056,17.2222222 41,17.2222222 C47.8421944,17.2222222 53.3888889,22.7689167 53.3888889,29.6111111 C53.3888889,36.4533055 47.8421944,42 41,42 Z M35.6728395,27.9150533 L35.6728395,31.2134333 L36.0979108,31.2134333 L36.0979108,27.9150533 L35.6728395,27.9150533 Z M41.4263071,33.5129284 L41.4263071,25.6155582 L38.6957757,27.4482336 L38.6957757,31.680253 L41.4263071,33.5129284 Z M41.9836603,34.0009234 C41.9836563,34.0009234 41.9836524,34.0009234 41.9836485,34.0009234 L41.9836721,34.0009234 C41.9836681,34.0009234 41.9836642,34.0009234 41.9836603,34.0009234 Z M44.2878895,30.7667383 C44.3700278,30.9217595 44.4050945,31.0963248 44.3878683,31.2718063 C44.3619863,31.5354633 44.2207121,31.774136 44.0020217,31.9236665 C44.7763869,31.3668389 45.2237497,30.4938221 45.2237577,29.5640148 C45.2237657,28.6342075 44.776418,27.7611829 44.0216898,27.218111 C44.2207661,27.3539042 44.3620189,27.592558 44.3879002,27.856191 C44.4052133,28.0325468 44.3697112,28.2079781 44.2888072,28.3614408 C43.9911341,28.5176801 43.619245,28.4964966 43.3364862,28.2849582 L43.3251011,28.2763116 C43.7244842,28.5841013 43.958445,29.0597855 43.9584428,29.564009 C43.9584407,30.0682326 43.7244759,30.5439148 43.3250901,30.8517011 C43.6162809,30.6337749 43.989095,30.610813 44.2878895,30.7667383 Z M45.3317789,31.8092306 C45.4082008,31.9529785 45.4444933,32.115038 45.4352362,32.2795538 C45.4209792,32.5329291 45.3000146,32.7683943 45.1023457,32.9275461 C46.1132693,32.0934564 46.6932665,30.8627243 46.6931269,29.5641555 C46.6929879,28.2703322 46.1169589,27.0439744 45.1219159,26.2177811 C45.3035174,26.3686875 45.420382,26.5999552 45.4345385,26.8485437 C45.4439392,27.0136191 45.4074751,27.1762477 45.3315735,27.3194474 C45.0187498,27.4847861 44.6258089,27.4530735 44.3405237,27.2153173 L44.3352691,27.2109076 C45.0280286,27.7963512 45.4276997,28.6572502 45.4278076,29.5642563 C45.4279156,30.4712623 45.0284495,31.3322565 44.3358294,31.917865 C44.6246411,31.6766676 45.0182788,31.6439666 45.3317789,31.8092306 Z M45.1219159,26.2177811 C45.1182664,26.2147509 45.1146112,26.211726 45.1109504,26.2087065 C45.1146494,26.2116742 45.1183227,26.2146749 45.1219698,26.217708 Z M46.3740526,32.8512151 C46.4478604,32.9901594 46.4843861,33.1468354 46.4781624,33.306464 C46.4684533,33.5554869 46.3555828,33.7892459 46.1666056,33.9517092 C47.4373391,32.8413354 48.1627733,31.2436988 48.1625013,29.5642625 C48.1622292,27.8848262 47.4362775,26.2874247 46.171288,25.1827493 C46.3537333,25.3390997 46.4669541,25.5729499 46.4768522,25.8221747 C46.4832037,25.9821007 46.446642,26.1390898 46.3731499,26.2777854 C46.0534756,26.4469634 45.6518014,26.4101481 45.3663006,26.1609573 L45.3613852,26.1566386 C46.3377821,27.0201778 46.8969739,28.2609792 46.8971856,29.5644557 C46.8973973,30.8679322 46.3386086,32.1089151 45.3624922,32.9727715 C45.6514093,32.7199622 46.0541984,32.6822811 46.3740526,32.8512151 Z" id="Combined-Shape" stroke="#FFFFFF" stroke-width="2" fill="#219FE3"></path>
                        </g>
                        <text id="Audio-Books" font-family="Montserrat-SemiBold, Montserrat" font-size="16" font-weight="500" fill="#5C5C5C">
                            <tspan x="59" y="17">Audio</tspan>
                            <tspan x="59" y="36">Books</tspan>
                        </text>
                    </g>
                </g>
            </g>
        </g>
    </g>
</svg>