<?xml version="1.0" encoding="UTF-8"?>
<svg width="22px" height="18px" viewBox="0 0 22 18" version="1.1" xmlns="http://www.w3.org/2000/svg" xmlns:xlink="http://www.w3.org/1999/xlink">
    <!-- Generator: Sketch 54.1 (76490) - https://sketchapp.com -->
    <title>Combined Shape</title>
    <desc>Created with Sketch.</desc>
    <g id="Channels" stroke="none" stroke-width="1" fill="none" fill-rule="evenodd">
        <g id="iPad-Pro-Copy-4" transform="translate(-1153.000000, -780.000000)" fill="#FFFFFF" fill-rule="nonzero">
            <g id="Group-31-Copy" transform="translate(1141.000000, 766.000000)">
                <g id="Group-3-Copy-2">
                    <g id="Group-31">
                        <path d="M22.0369102,18.4193769 C22.0369102,18.3922642 22.0369102,17.5924383 22.7116258,16.9146197 C23.3174927,16.3181394 24.2538326,16.0063429 25.4793363,16.0063429 C27.6274102,16.0198993 27.6549496,14.4609166 27.6549496,14.3931348 C27.6549496,14.1762328 27.8339558,14 28.054271,14 C28.2745863,14 28.4535925,14.1762328 28.4535925,14.3931348 C28.4535925,14.4202475 28.4260531,16.7926124 25.493106,16.7926124 C24.4741479,16.7926124 23.7305839,17.0230707 23.2899533,17.470431 C22.8493228,17.9042348 22.8355531,18.4058205 22.8355531,18.4193769 C22.8355531,18.6362788 22.6565469,18.8125117 22.4362317,18.8125117 C22.2159164,18.8125117 22.0369102,18.6362788 22.0369102,18.4193769 Z M27.6953026,18.2287093 C29.9856043,18.2287093 33.331241,22.3826878 33.331241,27.5695474 C33.331241,29.2086849 32.0962744,31.4540787 30.7265842,31.4540787 C27.9872038,31.4540787 27.4707632,27.2551923 22.6656205,27.2551923 C17.8604778,27.2551923 17.3440372,31.4540787 14.6046568,31.4540787 C13.2349666,31.4540787 12,29.2086849 12,27.5695474 C12,22.3826878 15.3456367,18.2287093 17.6359384,18.2287093 C19.9262401,18.2287093 20.3753188,20.7210964 22.6656205,20.7210964 C24.9559222,20.7210964 25.4050009,18.2287093 27.6953026,18.2287093 Z M18.511642,24.830167 L19.3199838,24.830167 C19.7788196,24.830167 20.1507795,24.4582071 20.1507795,23.9993713 C20.1507795,23.5405355 19.7788196,23.1685756 19.3199838,23.1685756 L18.4891881,23.1685756 L18.4891881,22.3377799 C18.4891881,21.8789441 18.1172281,21.5069842 17.6583923,21.5069842 C17.1995566,21.5069842 16.8275966,21.8789441 16.8275966,22.3377799 L16.8275966,23.1685756 L15.9968009,23.1685756 C15.5379651,23.1685756 15.1660052,23.5405355 15.1660052,23.9993713 C15.1660052,24.4582071 15.5379651,24.830167 15.9968009,24.830167 L16.8275966,24.830167 L16.8275966,25.6497358 C16.8275966,26.114772 17.204583,26.4917584 17.6696193,26.4917584 C18.1346556,26.4917584 18.511642,26.114772 18.511642,25.6497358 L18.511642,24.830167 Z M27.6728487,21.2824448 C27.0890463,21.2824448 26.6175136,21.7539775 26.6175136,22.3377799 C26.6175136,22.9215823 27.0890463,23.393115 27.6728487,23.393115 C28.256651,23.393115 28.7281837,22.9215823 28.7281837,22.3377799 C28.7281837,21.7539775 28.256651,21.2824448 27.6728487,21.2824448 Z M24.9559222,23.9993713 C24.9559222,24.5831737 25.4274549,25.0547064 26.0112572,25.0547064 C26.5950596,25.0547064 27.0665923,24.5831737 27.0665923,23.9993713 C27.0665923,23.4155689 26.5950596,22.9440362 26.0112572,22.9440362 C25.4274549,22.9440362 24.9559222,23.4155689 24.9559222,23.9993713 Z M27.6728487,26.7162978 C28.256651,26.7162978 28.7281837,26.2447651 28.7281837,25.6609627 C28.7281837,25.0771603 28.256651,24.6056276 27.6728487,24.6056276 C27.0890463,24.6056276 26.6175136,25.0771603 26.6175136,25.6609627 C26.6175136,26.2447651 27.0890463,26.7162978 27.6728487,26.7162978 Z M29.3344401,25.0547064 C29.9182424,25.0547064 30.3897751,24.5831737 30.3897751,23.9993713 C30.3897751,23.4155689 29.9182424,22.9440362 29.3344401,22.9440362 C28.7506377,22.9440362 28.279105,23.4155689 28.279105,23.9993713 C28.279105,24.5831737 28.7506377,25.0547064 29.3344401,25.0547064 Z" id="Combined-Shape"></path>
                    </g>
                </g>
            </g>
        </g>
    </g>
</svg>