<?xml version="1.0" encoding="UTF-8"?>
<svg width="33px" height="33px" viewBox="0 0 33 33" version="1.1" xmlns="http://www.w3.org/2000/svg" xmlns:xlink="http://www.w3.org/1999/xlink">
    <!-- Generator: Sketch 54.1 (76490) - https://sketchapp.com -->
    <title>Group 3</title>
    <desc>Created with Sketch.</desc>
    <g id="Music" stroke="none" stroke-width="1" fill="none" fill-rule="evenodd">
        <g id="Music-Copy" transform="translate(-797.000000, -17.000000)" fill="#FFFFFF">
            <g id="Group-3" transform="translate(797.000000, 17.000000)">
                <circle id="Oval-2-Copy-2" opacity="0.200000003" cx="16.5" cy="16.5" r="16.5"></circle>
                <path d="M24.7945105,15.3212368 C24.8415829,15.6869803 24.6618197,16.1227105 24.6138592,16.5854408 C24.5282408,17.4144474 24.8247079,18.1873224 24.6589776,18.7980197 C24.5390763,19.2419211 23.9603526,19.6637961 23.7109579,20.2878158 C23.5518,20.6855329 23.5640566,21.0846711 23.3949513,21.3717237 C23.1627868,21.7653553 22.5496026,22.0515197 22.1307474,22.4098026 C21.3314053,23.0943947 20.9054447,24.0239408 19.6025171,24.1257237 C19.4147605,24.1198618 19.5932803,24.0964145 19.6025171,24.0354868 C20.4864118,23.6899934 20.4530171,23.0226316 20.7311882,21.9133224 C20.8974513,21.2509342 21.3303395,20.6256711 21.0471947,19.8815724 C20.8564184,19.3802961 20.2464316,19.2678553 20.0537013,18.7529013 C19.9627539,18.5093684 20.0380697,18.2175197 19.9634645,17.9853553 C19.6758789,17.0904474 18.4582145,17.1844145 17.4803526,16.9469211 C16.6671553,16.7501053 15.9482803,16.3809868 15.2679513,16.7662697 C14.9817868,16.9288026 14.8286684,17.3039605 14.5908197,17.5338158 C14.1383921,17.9723882 12.9482605,18.4569671 12.8752539,19.2495592 C12.8569579,19.4476184 12.9338724,19.7321842 12.9203724,20.0622237 C12.8878658,20.8477105 12.5803855,21.3612434 12.6946026,21.8680263 C12.7930105,22.3037566 13.1935697,22.6229605 13.4619711,22.996875 C13.7312605,23.3713224 14.0012605,23.7066908 14.1392803,24.1255461 C12.4665237,24.0104408 12.0290171,22.6144342 11.0239776,21.7323158 C10.4026224,21.1873421 9.86866184,21.0290724 9.57912237,20.1974013 C9.43151052,19.7723289 9.42369474,19.0888026 9.30841184,18.4816579 C9.25423421,18.1958487 9.21160263,17.9354408 9.12776052,17.6689934 C8.94799737,17.0993289 8.67497763,16.3719276 8.90199079,15.592125 C8.99133947,15.2858882 9.22314868,15.0530132 9.35353026,14.7341645 C9.53951052,14.2799605 9.49403684,13.7413816 9.62441842,13.2893092 C9.72460263,12.9425724 10.0741816,12.3917368 10.30155,12.1606382 C10.4791816,11.980875 10.7983855,11.8721645 11.0239776,11.6639803 C11.6064316,11.1275329 11.8162145,10.3251711 12.2881816,9.99353289 C12.6105829,9.76740789 13.2395763,9.69049342 13.8232737,9.496875 C14.6449974,9.22509868 15.1562211,8.68509868 16.1260895,8.68421053 C16.5442342,8.68421053 17.0828132,8.84123684 17.6160632,8.86468421 C18.0734645,8.88493421 18.5505829,8.83679605 18.8802671,8.90980263 C19.3522342,9.01549342 19.8311289,9.49545395 20.3704184,9.72246711 C21.0786355,10.0217763 21.4699579,9.95054605 21.9055105,10.4898355 C22.0291421,10.6434868 22.0952211,10.8271579 22.2213395,10.9866711 C22.6441026,11.5215197 23.433675,11.7916974 23.7114908,12.4315263 C23.8518197,12.7560592 23.8615895,13.2708355 24.0274974,13.6955526 C24.2847079,14.3563421 24.7350039,14.8579737 24.7945105,15.3212368 Z M20.6675961,20.4881842 C20.7299447,20.6391711 20.5354382,20.5334803 20.5677671,20.6544474 C20.5265566,21.5825724 19.9226092,22.409625 18.9360434,22.0532961 C18.3942671,21.8573684 17.6201487,20.9901711 17.4375434,20.4546118 C17.3531684,20.2075263 17.3926026,19.9615066 17.3043197,19.7886711 C17.1329053,19.6629079 16.8870632,19.6918618 16.6715961,19.7556316 C16.5836684,19.9536908 16.6380237,20.1572566 16.5717671,20.3883553 C16.3909382,21.019125 15.4645895,22.062 14.7071684,22.1533026 C13.9083592,22.2488684 13.2976618,21.6681908 13.2752803,20.6544474 C13.2809645,20.5603026 13.0575039,20.6947697 13.1086618,20.5546184 C13.0415171,20.3878224 13.2601816,20.5064803 13.2752803,20.42175 C13.3324776,18.8660526 15.3755961,19.4520592 16.9380434,19.4561447 C17.7162474,19.4580987 18.5296224,19.2696316 19.268925,19.3225658 C19.9416158,19.3707039 20.5269118,19.6224079 20.5343724,20.3217434 C20.4908526,20.4652697 20.6929974,20.3629539 20.6675961,20.4881842 Z" id="Combined-Shape" fill-rule="nonzero"></path>
            </g>
        </g>
    </g>
</svg>