<?xml version="1.0" encoding="UTF-8"?>
<svg width="84px" height="17px" viewBox="0 0 84 17" version="1.1" xmlns="http://www.w3.org/2000/svg" xmlns:xlink="http://www.w3.org/1999/xlink">
    <!-- Generator: Sketch 54.1 (76490) - https://sketchapp.com -->
    <title>moovetv svg</title>
    <desc>Created with Sketch.</desc>
    <g id="Channels" stroke="none" stroke-width="1" fill="none" fill-rule="evenodd">
        <g id="iPad-Pro-Copy-4" transform="translate(-196.000000, -1203.000000)" fill="#FFFFFF">
            <g id="Group-28" transform="translate(50.000000, 948.000000)">
                <g id="moovetv-svg" transform="translate(146.000000, 255.000000)">
                    <path d="M36.7872342,11.4748468 C36.6052883,11.6402523 36.4682162,11.7584865 36.3381892,11.8831532 C35.1792793,12.9958108 34.0456396,14.1364955 32.8571712,15.2153063 C31.7380811,16.2311712 30.3868108,16.8087117 28.8840721,16.9539009 C25.4886667,17.2827207 22.381036,15.1783964 21.4558378,11.9111802 C21.2564324,11.2079009 21.0847477,10.4465766 21.1394234,9.73058559 C21.4468018,5.71368468 24.5294685,3.14193694 27.9325315,3.02002703 C31.1513514,2.9043964 33.8545045,5.00672973 34.7881261,7.65872973 C34.8810901,7.92322523 34.9558288,8.19323423 35.0582883,8.52205405 C35.4678198,8.14177477 35.8390631,7.8052973 36.2006577,7.45932432 C37.0584685,6.63995495 37.9063243,5.80986486 38.7685766,4.99509009 C40.7318468,3.13856757 43.0620721,2.57557658 45.6211081,3.30535135 C48.3107838,4.0724955 49.951973,5.93836036 50.5451351,8.66816216 C51.3514865,12.3795225 48.7556937,16.4633514 44.402009,16.9511441 C41.0177838,17.3301982 37.8337297,15.1417928 36.9189459,11.8725856 C36.8877027,11.7595586 36.8452793,11.648982 36.7872342,11.4748468 Z M28.1938108,13.7254324 C30.2762342,13.7223694 31.9379459,12.0605045 31.9365676,9.98022523 C31.9353423,7.92322523 30.2172703,6.21832432 28.1712973,6.24083784 C26.0804505,6.26396396 24.4351261,7.92138739 24.4372703,10.0033514 C24.4388018,12.0883784 26.0942342,13.7281892 28.1938108,13.7254324 Z M43.6680991,13.7254324 C45.7479189,13.7272703 47.4310721,12.0583604 47.4310721,9.9937027 C47.4310721,7.94083784 45.7528198,6.26457658 43.6707027,6.23884685 C41.6258018,6.21342342 39.9227387,7.91863063 39.9227387,9.99002703 C39.9227387,12.0798018 41.5708198,13.7243604 43.6680991,13.7254324 Z" id="Shape"></path>
                    <path d="M3.8325045,4.82631532 C4.80778378,3.50781982 6.02979279,2.91036937 7.56117117,2.95126126 C9.11552252,2.99353153 10.2508468,3.73295495 11.0432613,5.09969369 C11.159045,4.9568018 11.2420541,4.85418919 11.3247568,4.75142342 C12.7431081,2.98434234 15.4701532,2.39730631 17.4790631,3.45345045 C18.8588198,4.17863063 19.5625586,5.43004505 19.6801802,6.90108108 C19.8359369,8.85393694 19.7929009,10.8237928 19.822,12.7856847 C19.8301171,13.3411712 19.7973423,13.8974234 19.7726847,14.4529099 C19.7324054,15.3623333 19.2548739,15.874018 18.3479009,15.9320631 C17.9458739,15.9571802 17.5247027,15.9551892 17.1361532,15.8643694 C16.3659459,15.6833423 15.9988378,15.1736486 16.006955,14.3830721 C16.0257928,12.5798468 16.0627027,10.7763153 16.0772523,8.97293694 C16.080009,8.56769369 16.0584144,8.15448649 15.9847477,7.7569009 C15.8606937,7.08762162 15.5871622,6.48787387 14.8682613,6.26779279 C14.1038739,6.03377477 13.3984505,6.1929009 12.7901261,6.71346847 C12.2133514,7.20723423 12.0091982,7.86992793 12.0024595,8.60245946 C11.9892883,9.97318018 11.9923514,11.3452793 11.9800991,12.7170721 C11.9747387,13.2966036 11.9563604,13.877973 11.9289459,14.4576577 C11.8915766,15.247009 11.3929099,15.8198018 10.6121351,15.9195045 C10.2372162,15.9679009 9.84284685,15.9640721 9.469,15.9067928 C8.6409009,15.7792162 8.21574775,15.2624775 8.22141441,14.4218198 C8.23412613,12.5807658 8.29063964,10.7394054 8.26490991,8.89927027 C8.25725225,8.32264865 8.13779279,7.7085045 7.90607207,7.18257658 C7.35594595,5.93545045 5.59146847,5.74431532 4.69582883,6.78682883 C4.1676036,7.40235135 4.00863063,8.15555856 3.99637838,8.92852252 C3.96896396,10.6824324 3.98244144,12.4375676 3.97968468,14.1927027 C3.97769369,15.3157748 3.4483964,15.8789189 2.32762162,15.9466126 C2.16757658,15.9562613 2.00584685,15.9593243 1.8458018,15.9535045 C0.714306306,15.9109279 0.141513514,15.3274144 0.151315315,14.1965315 C0.168315315,12.1695495 0.207828829,10.1445586 0.222531532,8.11757658 C0.230648649,6.99404505 0.213036036,5.86913514 0.196342342,4.74499099 C0.186693694,4.10021622 0.316720721,3.51241441 0.951387387,3.21652252 C1.67564865,2.87866667 2.4336036,2.80775676 3.15510811,3.23536036 C3.55545045,3.4729009 3.70324324,3.88702703 3.7645045,4.33209009 C3.78211712,4.46303604 3.80018919,4.59413514 3.8325045,4.82631532 Z" id="Path"></path>
                    <path d="M67.5043964,11.0676126 C67.5607568,11.709018 67.8557297,12.190991 68.2994144,12.5876577 C69.1589099,13.3567928 70.1733964,13.4863604 71.2496036,13.2281441 C71.6654144,13.1285946 72.0596306,12.937 72.4585946,12.7763423 C72.6760721,12.6882793 72.8765495,12.5607027 73.0952523,12.4775405 C73.9924234,12.1367748 74.7096396,12.3913153 75.1384685,13.1924595 C75.5902703,14.034036 75.3954595,14.9214054 74.6281622,15.4534595 C73.906045,15.9554955 73.0946396,16.244955 72.2351441,16.4023964 C71.0123694,16.626 69.7856126,16.7073243 68.5553333,16.4549279 C65.4594955,15.8182703 63.2945225,12.7405045 63.6703604,9.59902703 C63.9336306,7.40189189 64.917027,5.66559459 66.7576216,4.43990991 C68.9634865,2.97117117 72.8669009,2.94467568 74.9750541,5.89333333 C75.7722162,7.00859459 76.0311982,8.24438739 75.7823243,9.5853964 C75.6294775,10.4125766 75.1651171,10.8383423 74.2682523,10.8865856 C73.0975495,10.9504505 71.9237838,10.9573423 70.7513964,10.9823063 C69.7880631,11.0026757 68.8251892,11.0143153 67.862009,11.0326937 C67.7541892,11.0348378 67.6466757,11.0541351 67.5043964,11.0676126 Z M67.4821892,8.66448649 C67.5785225,8.69833333 67.6235495,8.72835135 67.6681171,8.72620721 C69.1226126,8.68761261 70.5768018,8.64610811 72.0312973,8.60245946 C72.2901261,8.5944955 72.3245856,8.42143243 72.2960991,8.21421622 C72.1887387,7.42869369 71.7335676,6.91348649 71.014973,6.62862162 C69.7307838,6.12030631 68.1436577,6.81546847 67.6351892,8.10226126 C67.5655045,8.27930631 67.533955,8.47105405 67.4821892,8.66448649 Z" id="Shape"></path>
                    <path d="M56.8922613,11.9578919 C56.9832342,11.745009 57.0339279,11.6356577 57.0766577,11.5233964 C57.8876036,9.38721622 58.6980901,7.25134234 59.5084234,5.11531532 C59.5219009,5.0803964 59.5330811,5.04501802 59.5459459,5.0100991 C60.0925495,3.56525225 61.3281892,3.16659459 62.6324414,4.00909009 C63.130036,4.33086486 63.3617568,4.7841982 63.2681802,5.36418919 C63.2058468,5.75074775 63.1223784,6.14848649 62.9630991,6.50303604 C61.700964,9.30696396 60.4186126,12.1029279 59.143,14.9008829 C58.7633333,15.7348018 58.1972793,16.3343964 57.2432883,16.4892342 C56.1687658,16.6644414 55.2473964,16.206973 54.6848649,15.1388829 C54.3516036,14.5060541 54.0766937,13.8413694 53.7821802,13.1893964 C52.8275766,11.0725135 51.8755766,8.95471171 50.9255676,6.83583784 C50.7993694,6.55434234 50.6799099,6.26840541 50.5763784,5.97818018 C50.1299369,4.72477477 50.6753153,3.7936036 51.9876847,3.5579009 C53.0334144,3.37028829 53.6405135,3.67889189 54.0604595,4.71558559 C54.8106036,6.57027027 55.5203153,8.44103604 56.2467207,10.3053694 C56.447964,10.821036 56.6496667,11.3367027 56.8922613,11.9578919 Z" id="Path"></path>
                    <g id="Group" transform="translate(75.045045, 0.000000)" fill-rule="nonzero">
                        <polygon id="Path" points="2.159 4.76352252 1.51009009 4.76352252 1.51009009 0.692711712 0.0220540541 0.692711712 0.0220540541 0.122522523 3.64703604 0.122522523 3.64703604 0.692864865 2.159 0.692864865"></polygon>
                        <polygon id="Path" points="5.98032432 3.92454955 5.99992793 3.92454955 7.39622523 0.122522523 8.09751351 0.122522523 6.2752973 4.76352252 5.67218018 4.76352252 3.86298198 0.122522523 4.58402703 0.122522523"></polygon>
                    </g>
                </g>
            </g>
        </g>
    </g>
</svg>