<?xml version="1.0" encoding="UTF-8"?>
<svg width="140px" height="70px" viewBox="0 0 140 70" version="1.1" xmlns="http://www.w3.org/2000/svg" xmlns:xlink="http://www.w3.org/1999/xlink">
    <!-- Generator: Sketch 54.1 (76490) - https://sketchapp.com -->
    <title>Group 22</title>
    <desc>Created with Sketch.</desc>
    <defs>
        <linearGradient x1="0%" y1="22.2185391%" x2="101.999998%" y2="78.3370896%" id="linearGradient-1">
            <stop stop-color="#FD8041" offset="0%"></stop>
            <stop stop-color="#FF4CA1" offset="100%"></stop>
        </linearGradient>
    </defs>
    <g id="Movies" stroke="none" stroke-width="1" fill="none" fill-rule="evenodd">
        <g id="iPad-Pro-Copy-5" transform="translate(-50.000000, -133.000000)">
            <g id="Group-6" transform="translate(50.000000, 99.000000)">
                <g id="Group-22" transform="translate(0.000000, 34.000000)">
                    <path d="M8,0 L132,0 C136.418278,-8.11624501e-16 140,3.581722 140,8 L140,70 L0,70 L0,8 C-5.41083001e-16,3.581722 3.581722,8.11624501e-16 8,0 Z" id="Rectangle" fill="#FFFFFF"></path>
                    <text id="Movies" font-family="Montserrat-SemiBold, Montserrat" font-size="21" font-weight="500" fill="#5C5C5C">
                        <tspan x="53" y="43">Movies</tspan>
                    </text>
                    <path d="M41.4230348,24 L13.8195323,24 C11.7145033,24 10,25.7145033 10,27.8195323 L10,45.1169652 C10,45.7456164 10.533401,46.2609199 11.1906273,46.2609199 C11.8478535,46.2609199 12.3717295,45.7456164 12.3717295,45.1169652 L12.3717295,43.708215 L15.0196846,43.708215 L15.0196846,47.9744706 L14.0100326,47.9744706 C13.3718564,47.9744706 12.8670305,48.4897741 12.8670305,49.1279503 C12.8670305,49.7566015 13.3718564,50.27 14.0100326,50.27 L41.4230348,50.27 C43.5280638,50.27 45.2425671,48.5564492 45.2425671,46.4504677 L45.2425671,27.8195323 C45.2425671,25.7145033 43.5280638,24 41.4230348,24 Z M15.0206371,42.0880094 L12.3717295,42.0880094 L12.3717295,37.8112763 L15.0196846,37.8112763 L15.0196846,42.0880094 L15.0206371,42.0880094 Z M15.0206371,36.4787263 L12.3717295,36.4787263 L12.3717295,32.2019931 L15.0196846,32.2019931 L15.0196846,36.4787263 L15.0206371,36.4787263 Z M15.0206371,30.56369 L12.3812545,30.56369 L12.3812545,27.7442846 C12.3812545,26.9441831 12.9718057,26.2964819 13.695707,26.2964819 L15.0206371,26.2964819 L15.0206371,30.56369 L15.0206371,30.56369 Z M32.7885212,37.5718333 L24.4908533,42.0386437 L24.2334439,42.0689271 C23.779192,42.0689271 23.4309322,41.7055256 23.4309322,41.2346178 L23.4309322,32.4826979 C23.4309322,32.0117901 23.779192,31.6499028 24.2334439,31.6499028 L24.3984887,31.6499028 L24.6407564,31.7543807 L32.7885212,36.1454824 C33.0746999,36.2968997 33.2427731,36.5543091 33.2427731,36.8586579 C33.2427731,37.1614925 33.0762141,37.4189019 32.7885212,37.5718333 Z M43.0137128,46.5266679 C43.0137128,47.3267694 42.4231617,47.9744706 41.6887828,47.9744706 L40.3743303,47.9744706 L40.3743303,43.708215 L43.0137128,43.708215 L43.0137128,46.5266679 Z M43.0137128,42.0880094 L40.3752828,42.0880094 L40.3752828,37.8112763 L43.0146653,37.8112763 L43.0146653,42.0880094 L43.0137128,42.0880094 Z M43.0137128,36.4787263 L40.3752828,36.4787263 L40.3752828,32.2019931 L43.0146653,32.2019931 L43.0146653,36.4787263 L43.0137128,36.4787263 Z M43.0137128,30.5722625 L40.3752828,30.5722625 L40.3752828,26.2955294 L41.6897353,26.2955294 C42.4241142,26.2955294 43.0146653,26.9432306 43.0146653,27.7528571 L43.0146653,30.5722625 L43.0137128,30.5722625 Z" id="Shape" fill="url(#linearGradient-1)" fill-rule="nonzero"></path>
                </g>
            </g>
        </g>
    </g>
</svg>