<?xml version="1.0" encoding="UTF-8"?>
<svg width="21px" height="20px" viewBox="0 0 21 20" version="1.1" xmlns="http://www.w3.org/2000/svg" xmlns:xlink="http://www.w3.org/1999/xlink">
    <!-- Generator: Sketch 54.1 (76490) - https://sketchapp.com -->
    <title>Shape</title>
    <desc>Created with Sketch.</desc>
    <g id="Channels" stroke="none" stroke-width="1" fill="none" fill-rule="evenodd">
        <g id="iPad-Pro-Copy-4" transform="translate(-284.000000, -779.000000)" fill="#FFFFFF" fill-rule="nonzero">
            <g id="Group-17" transform="translate(272.000000, 766.000000)">
                <g id="Group">
                    <path d="M32.4242554,31.8107754 L26.511801,31.8107754 C29.7005404,30.0830341 31.7377906,26.6724278 31.7377906,22.9925631 C31.7377906,17.2259459 26.8882494,12.5812386 21.1086591,13.0300026 C16.2812619,13.3890138 12.3839136,17.3381369 12.0296093,22.2296643 C11.5867288,28.0860343 16.1705417,33 21.8615559,33 L32.4242554,33 C32.7342717,33 33,32.7307416 33,32.4166068 L33,32.4166068 C33,32.0800338 32.7564157,31.8107754 32.4242554,31.8107754 Z M23.5223577,17.9439683 C23.9652382,17.4952043 24.5631268,17.2259459 25.2053035,17.2259459 C25.8474802,17.2259459 26.4453689,17.4727661 26.8882494,17.9439683 C27.3311299,18.3927322 27.5747141,18.9985636 27.5747141,19.6268332 C27.5747141,20.2551028 27.3311299,20.8833724 26.8882494,21.3096982 C26.4675129,21.7584621 25.8696243,22.0052823 25.2274476,22.0052823 C24.6295589,22.0052823 24.0316703,21.7584621 23.5445017,21.3096982 C23.1016213,20.8609342 22.858037,20.2551028 22.858037,19.604395 C22.858037,18.9536872 23.0794772,18.370294 23.5223577,17.9439683 Z M16.8348625,17.9439683 C17.7649115,17.0015639 19.2707051,17.0015639 20.2007541,17.9439683 C20.6436346,18.3927322 20.8872189,18.9985636 20.8872189,19.6268332 C20.8872189,20.2551028 20.6436346,20.8833724 20.2007541,21.3096982 C19.7578736,21.7584621 19.159985,22.0052823 18.5399523,22.0052823 C17.9199196,22.0052823 17.344175,21.7809003 16.8570065,21.3321364 C15.9048135,20.4121702 15.9048135,18.8639344 16.8348625,17.9439683 Z M20.2007541,28.1084725 C19.7578736,28.5572365 19.159985,28.8040567 18.5399523,28.8040567 C17.8977756,28.8040567 17.299887,28.5572365 16.8791505,28.0860343 C16.43627,27.6372704 16.1926858,27.031439 16.1926858,26.3807312 C16.1926858,25.7300234 16.43627,25.124192 16.9012945,24.6754281 C17.344175,24.2266641 17.9420637,23.9798439 18.5620963,23.9798439 C19.204273,23.9798439 19.8021617,24.2266641 20.2228981,24.6978663 C20.6657786,25.1466302 20.9093629,25.7524616 20.9093629,26.4031694 C20.9093629,27.0538772 20.6436346,27.6372704 20.2007541,28.1084725 Z M21.8615559,24.0471585 C21.2858113,24.0471585 20.8207868,23.5759563 20.8207868,22.9925631 C20.8207868,22.4091699 21.2858113,21.9379677 21.8615559,21.9379677 C22.4373005,21.9379677 22.902325,22.4091699 22.902325,22.9925631 C22.9244691,23.5759563 22.4594446,24.0471585 21.8615559,24.0471585 Z M23.5445017,28.1084725 C23.1016213,27.6597086 22.835893,27.0538772 22.835893,26.4031694 C22.835893,25.7524616 23.0794772,25.1466302 23.5445017,24.6978663 C23.9873822,24.2491023 24.5852709,23.9798439 25.2053035,23.9798439 C25.8474802,23.9798439 26.4453689,24.2266641 26.8661053,24.6978663 C27.3089858,25.1466302 27.5747141,25.7524616 27.5747141,26.4031694 C27.5747141,27.0538772 27.3311299,27.6597086 26.8661053,28.1084725 C26.4453689,28.5572365 25.8474802,28.8040567 25.2053035,28.8040567 C24.5852709,28.8040567 23.9873822,28.5347983 23.5445017,28.1084725 Z" id="Shape"></path>
                </g>
            </g>
        </g>
    </g>
</svg>