<?xml version="1.0" encoding="UTF-8"?>
<svg width="17px" height="18px" viewBox="0 0 17 18" version="1.1" xmlns="http://www.w3.org/2000/svg" xmlns:xlink="http://www.w3.org/1999/xlink">
    <!-- Generator: Sketch 54.1 (76490) - https://sketchapp.com -->
    <title>Shape</title>
    <desc>Created with Sketch.</desc>
    <g id="Channels" stroke="none" stroke-width="1" fill="none" fill-rule="evenodd">
        <g id="iPad-Pro-Copy-4" transform="translate(-730.000000, -780.000000)" fill="#FFFFFF" fill-rule="nonzero">
            <g id="Group-23" transform="translate(716.000000, 766.000000)">
                <g id="Group-3">
                    <path d="M30.2739076,15.0573672 C30.2740996,14.7269606 30.1197418,14.4154815 29.8567165,14.2155159 C29.5936913,14.0155503 29.2522765,13.9501172 28.9339565,14.0386662 L19.8290523,16.5748512 C19.3716397,16.7020923 19.05524,17.1187717 19.0555159,17.5935522 L19.0555159,25.1429296 C18.5264884,24.8945815 17.9491456,24.7661227 17.3647259,24.7667288 C15.4170963,24.8863843 13.9229681,26.5419568 14.003076,28.4916135 C14.0831839,30.4412702 15.7080954,31.9686869 17.6589762,31.9281596 C19.609857,31.8876324 21.1699334,30.2940512 21.1690034,28.3427497 C21.1690034,28.3131608 21.1690034,28.283572 21.1690034,28.2539832 C21.1690034,28.2243944 21.1690034,28.2243944 21.1690034,28.2074865 L21.1690034,18.3797695 L28.1604201,16.443815 L28.1604201,22.6067446 C27.6313926,22.3583964 27.0540498,22.2299377 26.4696301,22.2305438 C24.5220005,22.3501993 23.0278724,24.0057718 23.1079803,25.9554285 C23.1880881,27.9050851 24.8129996,29.4325019 26.7638804,29.3919746 C28.7147612,29.3514473 30.2748376,27.7578661 30.2739076,25.8065647 C30.2739076,25.7769758 30.2739076,25.747387 30.2739076,25.7177982 C30.2739076,25.6882094 30.2739076,25.6882094 30.2739076,25.6713015 L30.2739076,15.0573672 Z M17.3647259,29.7926021 C16.5830028,29.6797695 16.027768,28.9727822 16.1034402,28.1865915 C16.1791124,27.4004008 16.859002,26.8122962 17.6478949,26.8506381 C18.4367878,26.88898 19.0564414,27.5402452 19.0555159,28.3300687 C18.9879604,29.1985578 18.2338902,29.8508285 17.3647259,29.7926021 L17.3647259,29.7926021 Z M26.4654031,27.2564171 C25.68368,27.1435845 25.1284452,26.4365972 25.2041174,25.6504065 C25.2797896,24.8642157 25.9596792,24.2761112 26.7485721,24.3144531 C27.537465,24.352795 28.1571186,25.0040602 28.1561931,25.7938837 C28.0886222,26.6606167 27.3371998,27.3122261 26.4696301,27.2564171 L26.4654031,27.2564171 Z" id="Shape"></path>
                </g>
            </g>
        </g>
    </g>
</svg>