<?xml version="1.0" encoding="UTF-8"?>
<svg width="23px" height="21px" viewBox="0 0 23 21" version="1.1" xmlns="http://www.w3.org/2000/svg" xmlns:xlink="http://www.w3.org/1999/xlink">
    <!-- Generator: Sketch 54.1 (76490) - https://sketchapp.com -->
    <title>Shape</title>
    <desc>Created with Sketch.</desc>
    <g id="Channels" stroke="none" stroke-width="1" fill="none" fill-rule="evenodd">
        <g id="iPad-Pro-Copy-4" transform="translate(-945.000000, -778.000000)" fill="#FFFFFF" fill-rule="nonzero">
            <g id="Group-29" transform="translate(934.000000, 766.000000)">
                <g id="Group-3-Copy">
                    <g id="Group-16">
                        <path d="M18.1108734,32.8211476 C16.615831,32.2420058 15.3717653,31.4317286 14.2400895,30.3000529 C12.4167623,28.4767257 11.3404638,26.2173023 11.0370086,23.575973 C10.9876638,23.1464681 10.9876638,21.7862478 11.0370086,21.3567429 C11.3404638,18.7154136 12.4167623,16.4559902 14.2400895,14.632663 C15.1643271,13.7084249 16.1418161,13.0153041 17.3011247,12.4621329 C17.6693128,12.2864499 18.1569824,12.0830215 18.3565739,12.021859 L18.4279063,12 L18.4279063,12.8353346 L18.4279063,13.6706694 L18.0139554,13.8660473 C15.297958,15.1479543 13.3403435,17.6517517 12.7533234,20.5944193 C12.6111644,21.3070471 12.5786847,21.6551928 12.5786847,22.4663579 C12.5786847,23.2775231 12.6111644,23.6256688 12.7533234,24.3382966 C13.3403435,27.2809642 15.297958,29.7847616 18.0139554,31.0666686 L18.4279063,31.2620465 L18.4279063,32.095245 C18.4279063,32.5535038 18.4172065,32.9277891 18.4041288,32.9269899 C18.3910513,32.926191 18.2590863,32.8785615 18.1108734,32.8211476 Z M25.7196626,32.0973813 L25.7196626,31.2620465 L26.1336132,31.0666686 C28.8496119,29.7847616 30.807224,27.2809642 31.3942446,24.3382966 C31.5364047,23.6256688 31.5688841,23.2775231 31.5688841,22.4663579 C31.5688841,21.6551928 31.5364047,21.3070471 31.3942446,20.5944193 C30.807224,17.6517517 28.8496119,15.1479543 26.1336132,13.8660473 L25.7196626,13.6706694 L25.7196626,12.8353346 L25.7196626,12 L25.790995,12.021859 C25.9905865,12.0830215 26.4782559,12.2864499 26.8464439,12.4621329 C28.0057515,13.0153041 28.9832425,13.7084249 29.9074796,14.632663 C31.7308067,16.4559902 32.8071055,18.7154136 33.1105592,21.3567429 C33.131595,21.5398293 33.1488035,22.0391561 33.1488035,22.4663579 C33.1488035,22.8935598 33.131595,23.3928866 33.1105592,23.575973 C32.8071055,26.2173023 31.7308067,28.4767257 29.9074796,30.3000529 C28.9832425,31.224291 28.0057515,31.9174118 26.8464439,32.470583 C26.4782559,32.6462661 25.9905865,32.8496945 25.790995,32.910857 L25.7196626,32.932716 L25.7196626,32.0973813 L25.7196626,32.0973813 Z M17.0171099,28.5598444 C15.4866197,27.2992884 14.4698904,25.4274628 14.2066722,23.3857533 C14.1853166,23.2201036 14.1678438,22.8063757 14.1678438,22.4663579 C14.1678438,22.1263402 14.1853166,21.7126123 14.2066722,21.5469626 C14.4002781,20.0452186 14.9863692,18.6556769 15.9182947,17.4889417 C16.2030392,17.1324524 16.6978383,16.6317674 17.0408874,16.3529948 L17.2865879,16.1533306 L17.2865879,16.8052843 L17.2865879,17.4572384 L17.7312481,17.4572384 L18.175908,17.4572384 L17.9610969,17.6429435 C17.2787942,18.2327972 16.7519015,18.9175664 16.3668187,19.7149259 C15.3223731,21.8775746 15.5881641,24.4215464 17.060044,26.3500108 C17.1398947,26.4546316 17.354191,26.6935951 17.5362576,26.8810409 L17.8672881,27.2218512 L17.5774919,27.2218512 L17.2876955,27.2218512 L17.279216,27.9952948 L17.2707362,28.7687386 L17.0171099,28.5598444 Z M26.860981,28.0006184 L26.860981,27.2218512 L26.5706309,27.2218512 L26.2802808,27.2218512 L26.6113113,26.8810409 C27.1362619,26.340581 27.4627787,25.8761874 27.7807495,25.21779 C28.825104,23.0553328 28.5584108,20.5044205 27.0870678,18.5827051 C26.8998041,18.3381206 26.4612266,17.8804702 26.186472,17.6429435 L25.9716609,17.4572384 L26.4163208,17.4572384 L26.860981,17.4572384 L26.860981,16.8052843 L26.860981,16.1533306 L27.1066815,16.3529948 C28.6418057,17.6004868 29.6765909,19.4968286 29.9408974,21.5469626 C29.9622527,21.7126123 29.9797251,22.1263402 29.9797251,22.4663579 C29.9797251,22.8063757 29.9622527,23.2201036 29.9408974,23.3857533 C29.7472918,24.8874973 29.1611994,26.277039 28.2292749,27.4437742 C27.9445287,27.8002635 27.4497306,28.3009485 27.1066815,28.5797211 L26.860981,28.7793853 L26.860981,28.0006184 L26.860981,28.0006184 Z M21.6695574,25.6050276 C20.3689404,25.4218585 19.3449039,24.5086752 19.0073473,23.2310058 C18.938785,22.9714943 18.9267801,22.8575588 18.9267801,22.4663579 C18.9267801,22.0751571 18.938785,21.9612216 19.0073473,21.7017101 C19.3123722,20.5471745 20.1546013,19.7049457 21.3091366,19.3999208 C21.5686481,19.3313587 21.6825836,19.3193536 22.0737844,19.3193536 C22.4649853,19.3193536 22.5789208,19.3313587 22.8384323,19.3999208 C23.9929676,19.7049457 24.8351967,20.5471745 25.1402216,21.7017101 C25.2087837,21.9612216 25.2207888,22.0751571 25.2207888,22.4663579 C25.2207888,22.8575588 25.2087837,22.9714943 25.1402216,23.2310058 C24.8355188,24.3843224 23.980229,25.2399445 22.8439301,25.5281905 C22.505325,25.6140849 21.9785835,25.6485486 21.6695574,25.6050276 Z" id="Shape"></path>
                    </g>
                </g>
            </g>
        </g>
    </g>
</svg>