<?xml version="1.0" encoding="UTF-8"?>
<svg width="33px" height="31px" viewBox="0 0 33 31" version="1.1" xmlns="http://www.w3.org/2000/svg" xmlns:xlink="http://www.w3.org/1999/xlink">
    <!-- Generator: Sketch 54.1 (76490) - https://sketchapp.com -->
    <title>Shape</title>
    <desc>Created with Sketch.</desc>
    <g id="Channels" stroke="none" stroke-width="1" fill="none" fill-rule="evenodd">
        <g id="iPad-Pro-Copy-4" transform="translate(-609.000000, -1565.000000)" fill="#2E2E2E" fill-rule="nonzero">
            <path d="M619.59465,1595.83477 C617.367153,1594.9771 615.513591,1593.77713 613.827482,1592.1012 C611.110866,1589.40097 609.507265,1586.05491 609.05514,1582.14327 C608.98162,1581.5072 608.98162,1579.4928 609.05514,1578.85673 C609.507265,1574.94509 611.110866,1571.59903 613.827482,1568.8988 C615.204525,1567.53007 616.660907,1566.5036 618.388187,1565.68439 C618.936759,1565.42421 619.663349,1565.12295 619.960725,1565.03237 L620.067004,1565 L620.067004,1566.23708 L620.067004,1567.47415 L619.45025,1567.7635 C615.403624,1569.66192 612.48693,1573.36988 611.612316,1577.72778 C611.40051,1578.78314 611.352118,1579.29872 611.352118,1580.5 C611.352118,1581.70128 611.40051,1582.21686 611.612316,1583.27222 C612.48693,1587.63012 615.403624,1591.33808 619.45025,1593.2365 L620.067004,1593.52585 L620.067004,1594.75976 C620.067004,1595.43841 620.051063,1595.9927 620.031578,1595.99152 C620.012093,1595.99034 619.815476,1595.9198 619.59465,1595.83477 Z M630.931156,1594.76292 L630.931156,1593.52585 L631.54791,1593.2365 C635.594538,1591.33808 638.511228,1587.63012 639.385843,1583.27222 C639.597651,1582.21686 639.646043,1581.70128 639.646043,1580.5 C639.646043,1579.29872 639.597651,1578.78314 639.385843,1577.72778 C638.511228,1573.36988 635.594538,1569.66192 631.54791,1567.7635 L630.931156,1567.47415 L630.931156,1566.23708 L630.931156,1565 L631.037436,1565.03237 C631.334812,1565.12295 632.061401,1565.42421 632.609973,1565.68439 C634.337251,1566.5036 635.793637,1567.53007 637.170679,1568.8988 C639.887295,1571.59903 641.490896,1574.94509 641.943019,1578.85673 C641.974361,1579.12787 642,1579.86734 642,1580.5 C642,1581.13266 641.974361,1581.87213 641.943019,1582.14327 C641.490896,1586.05491 639.887295,1589.40097 637.170679,1592.1012 C635.793637,1593.46993 634.337251,1594.4964 632.609973,1595.31561 C632.061401,1595.57579 631.334812,1595.87705 631.037436,1595.96763 L630.931156,1596 L630.931156,1594.76292 L630.931156,1594.76292 Z M617.965027,1589.52406 C615.684716,1587.65726 614.169868,1584.8852 613.777693,1581.86157 C613.745875,1581.61625 613.719842,1581.00354 613.719842,1580.5 C613.719842,1579.99646 613.745875,1579.38375 613.777693,1579.13843 C614.066151,1576.91445 614.939381,1574.85663 616.327878,1573.12877 C616.752125,1572.60083 617.489337,1571.85935 618.000454,1571.4465 L618.366529,1571.15081 L618.366529,1572.11632 L618.366529,1573.08182 L619.029038,1573.08182 L619.691547,1573.08182 L619.371495,1573.35683 C618.354917,1574.23037 617.569887,1575.24447 616.996144,1576.42531 C615.440001,1579.62805 615.836009,1583.39551 618.028996,1586.25144 C618.147967,1586.40638 618.467252,1586.76026 618.738517,1587.03786 L619.231727,1587.54258 L618.799953,1587.54258 L618.368179,1587.54258 L618.355545,1588.688 L618.342911,1589.83342 L617.965027,1589.52406 Z M632.631632,1588.69588 L632.631632,1587.54258 L632.199033,1587.54258 L631.766434,1587.54258 L632.259643,1587.03786 C633.041779,1586.23747 633.528264,1585.54974 634.002016,1584.57469 C635.558023,1581.37223 635.160671,1577.5945 632.968484,1574.74856 C632.689475,1574.38635 632.036029,1573.7086 631.626666,1573.35683 L631.306614,1573.08182 L631.969123,1573.08182 L632.631632,1573.08182 L632.631632,1572.11632 L632.631632,1571.15081 L632.997707,1571.4465 C635.284923,1573.29396 636.826672,1576.10232 637.220469,1579.13843 C637.252286,1579.38375 637.278319,1579.99646 637.278319,1580.5 C637.278319,1581.00354 637.252286,1581.61625 637.220469,1581.86157 C636.932011,1584.08555 636.058779,1586.14337 634.670284,1587.87123 C634.246034,1588.39917 633.508823,1589.14065 632.997707,1589.5535 L632.631632,1589.84919 L632.631632,1588.69588 L632.631632,1588.69588 Z M624.896813,1585.14817 C622.958995,1584.87691 621.43326,1583.52454 620.930327,1581.63239 C620.828174,1581.24807 620.810288,1581.07934 620.810288,1580.5 C620.810288,1579.92066 620.828174,1579.75193 620.930327,1579.36761 C621.38479,1577.65781 622.639646,1576.41053 624.359814,1575.9588 C624.746466,1575.85727 624.916221,1575.83949 625.49908,1575.83949 C626.081939,1575.83949 626.251694,1575.85727 626.638346,1575.9588 C628.358514,1576.41053 629.61337,1577.65781 630.067834,1579.36761 C630.169986,1579.75193 630.187873,1579.92066 630.187873,1580.5 C630.187873,1581.07934 630.169986,1581.24807 630.067834,1581.63239 C629.61385,1583.34038 628.339535,1584.6075 626.646538,1585.03438 C626.142042,1585.16158 625.357238,1585.21262 624.896813,1585.14817 Z" id="Shape"></path>
        </g>
    </g>
</svg>