<?xml version="1.0" encoding="UTF-8"?>
<svg width="33px" height="33px" viewBox="0 0 33 33" version="1.1" xmlns="http://www.w3.org/2000/svg" xmlns:xlink="http://www.w3.org/1999/xlink">
    <!-- Generator: Sketch 54.1 (76490) - https://sketchapp.com -->
    <title>Group</title>
    <desc>Created with Sketch.</desc>
    <g id="Radio" stroke="none" stroke-width="1" fill="none" fill-rule="evenodd">
        <g id="Music-Copy" transform="translate(-907.000000, -17.000000)" fill="#FFFFFF">
            <g id="Group-4" transform="translate(907.000000, 17.000000)">
                <g id="Group">
                    <circle id="Oval-2" opacity="0.200000003" cx="16.5" cy="16.5" r="16.5"></circle>
                    <path d="M13.0917691,25.8371371 C11.8109907,25.3409959 10.74522,24.6468446 9.77573174,23.6773565 C8.21371715,22.1153419 7.29166981,20.1797308 7.03170465,17.9169471 C6.98943178,17.5489972 6.98943178,16.3837187 7.03170465,16.0157688 C7.29166981,13.7529851 8.21371715,11.817374 9.77573174,10.2553594 C10.5675111,9.46357975 11.4049099,8.8697944 12.3980707,8.39590171 C12.7134914,8.24539692 13.13127,8.07112319 13.3022567,8.01872628 L13.363366,8 L13.363366,8.71561754 L13.363366,9.43123516 L13.0087411,9.59861229 C10.6819905,10.6968011 9.0049341,12.8417634 8.50204355,15.3626987 C8.3802582,15.9731952 8.35243342,16.271446 8.35243342,16.966358 C8.35243342,17.6612699 8.3802582,17.9595207 8.50204355,18.5700173 C9.0049341,21.0909525 10.6819905,23.2359148 13.0087411,24.3341036 L13.363366,24.5014808 L13.363366,25.2152682 C13.363366,25.6078511 13.3541997,25.9284952 13.3429962,25.9278105 C13.331793,25.9271261 13.2187407,25.8863227 13.0917691,25.8371371 Z M19.6100946,25.2170984 L19.6100946,24.5014808 L19.9647193,24.3341036 C22.291471,23.2359148 23.9685254,21.0909525 24.4714164,18.5700173 C24.5932026,17.9595207 24.6210272,17.6612699 24.6210272,16.966358 C24.6210272,16.271446 24.5932026,15.9731952 24.4714164,15.3626987 C23.9685254,12.8417634 22.291471,10.6968011 19.9647193,9.59861229 L19.6100946,9.43123516 L19.6100946,8.71561754 L19.6100946,8 L19.6712039,8.01872628 C19.8421907,8.07112319 20.2599691,8.24539692 20.5753898,8.39590171 C21.5685496,8.8697944 22.4059502,9.46357975 23.1977291,10.2553594 C24.7597436,11.817374 25.6817912,13.7529851 25.9417551,16.0157688 C25.9597761,16.172616 25.9745183,16.6003811 25.9745183,16.966358 C25.9745183,17.3323348 25.9597761,17.7600999 25.9417551,17.9169471 C25.6817912,20.1797308 24.7597436,22.1153419 23.1977291,23.6773565 C22.4059502,24.4691362 21.5685496,25.0629215 20.5753898,25.5368142 C20.2599691,25.6873191 19.8421907,25.8615928 19.6712039,25.9139897 L19.6100946,25.932716 L19.6100946,25.2170984 L19.6100946,25.2170984 Z M12.1547598,22.1865483 C10.8436139,21.1066506 9.97259842,19.5030882 9.74710369,17.753989 C9.7288087,17.6120796 9.71384002,17.2576456 9.71384002,16.966358 C9.71384002,16.6750703 9.7288087,16.3206363 9.74710369,16.178727 C9.9129627,14.8922074 10.4150574,13.7018098 11.2134228,12.7022867 C11.4573588,12.3968881 11.881245,11.9679595 12.1751296,11.7291396 L12.3856172,11.5580905 L12.3856172,12.1166086 L12.3856172,12.675127 L12.7665503,12.675127 L13.1474832,12.675127 L12.9634581,12.8342176 C12.3789405,13.3395356 11.9275601,13.9261662 11.5976659,14.6092511 C10.7029065,16.4619569 10.9306053,18.641336 12.1915408,20.2934199 C12.2599476,20.3830469 12.4435316,20.587763 12.5995052,20.7483447 L12.8830936,21.0403114 L12.6348299,21.0403114 L12.386566,21.0403114 L12.3793018,21.7029079 L12.3720373,22.3655046 L12.1547598,22.1865483 Z M20.5878434,21.7074685 L20.5878434,21.0403114 L20.3391052,21.0403114 L20.090367,21.0403114 L20.3739555,20.7483447 C20.8236721,20.2853416 21.1033937,19.8875032 21.3757941,19.3234649 C22.2704755,17.4709231 22.0420039,15.2855982 20.7815283,13.639296 C20.6211026,13.4297644 20.2453804,13.0377028 20.0100026,12.8342176 L19.8259774,12.675127 L20.2069103,12.675127 L20.5878434,12.675127 L20.5878434,12.1166086 L20.5878434,11.5580905 L20.798331,11.7291396 C22.1134469,12.7978456 22.9999305,14.4224106 23.2263575,16.178727 C23.2446523,16.3206363 23.2596206,16.6750703 23.2596206,16.966358 C23.2596206,17.2576456 23.2446523,17.6120796 23.2263575,17.753989 C23.0604987,19.0405085 22.558403,20.2309061 21.7600385,21.2304292 C21.516101,21.5358278 21.0922156,21.9647564 20.798331,22.2035763 L20.5878434,22.3746254 L20.5878434,21.7074685 L20.5878434,21.7074685 Z M16.1404356,19.655205 C15.0262182,19.498287 14.1489429,18.7159778 13.8597637,17.6214193 C13.8010275,17.3991 13.7907431,17.3014933 13.7907431,16.966358 C13.7907431,16.6312226 13.8010275,16.5336159 13.8597637,16.3112967 C14.1210736,15.3222249 14.8425974,14.6007012 15.831669,14.3393913 C16.0539882,14.2806553 16.151595,14.2703707 16.4867303,14.2703707 C16.8218657,14.2703707 16.9194724,14.2806553 17.1417916,14.3393913 C18.1308632,14.6007012 18.8523871,15.3222249 19.113697,16.3112967 C19.172433,16.5336159 19.1827176,16.6312226 19.1827176,16.966358 C19.1827176,17.3014933 19.172433,17.3991 19.113697,17.6214193 C18.852663,18.6094468 18.1199502,19.3424443 17.1465015,19.5893799 C16.8564241,19.6629642 16.4051732,19.6924888 16.1404356,19.655205 Z" id="Shape" fill-rule="nonzero"></path>
                </g>
            </g>
        </g>
    </g>
</svg>