<?xml version="1.0" encoding="UTF-8"?>
<svg width="17px" height="19px" viewBox="0 0 17 19" version="1.1" xmlns="http://www.w3.org/2000/svg" xmlns:xlink="http://www.w3.org/1999/xlink">
    <!-- Generator: Sketch 54.1 (76490) - https://sketchapp.com -->
    <title>Combined Shape</title>
    <desc>Created with Sketch.</desc>
    <g id="Channels" stroke="none" stroke-width="1" fill="none" fill-rule="evenodd" opacity="0.800000012">
        <g id="iPad-Pro-Copy-4" transform="translate(-347.000000, -1571.000000)" fill="#000000">
            <path d="M354.770603,1577.08216 L364,1574.95833 C364,1578.40956 364,1581.86078 364,1585.312 C363.805013,1588.03316 358.34537,1588.29863 358.34537,1585.312 C358.34537,1583.32091 361.335174,1582.65721 362.960068,1583.65276 L362.960068,1578.01134 L355.810535,1579.67058 L355.810535,1587.83405 C355.615548,1590.62157 350.090909,1590.82068 350.090909,1587.83405 C350.090909,1585.90933 353.145709,1585.17926 354.770603,1586.24117 C354.770603,1583.18817 354.770603,1580.13517 354.770603,1577.08216 Z M351.548281,1572.84485 L359.363636,1571 L359.363636,1573.83316 L352.573245,1575.34858 L352.573245,1582.5962 C352.381065,1585.29759 347,1585.56114 347,1582.5962 C347,1580.61958 349.946773,1579.9607 351.548281,1580.94901 C351.548281,1577.91819 351.548281,1575.80979 351.548281,1572.84485 Z" id="Combined-Shape"></path>
        </g>
    </g>
</svg>