<?xml version="1.0" encoding="UTF-8"?>
<svg width="33px" height="33px" viewBox="0 0 33 33" version="1.1" xmlns="http://www.w3.org/2000/svg" xmlns:xlink="http://www.w3.org/1999/xlink">
    <!-- Generator: Sketch 54.1 (76490) - https://sketchapp.com -->
    <title>Group 3 Copy</title>
    <desc>Created with Sketch.</desc>
    <g id="Music" stroke="none" stroke-width="1" fill="none" fill-rule="evenodd">
        <g id="Music-Copy" transform="translate(-907.000000, -17.000000)" fill="#FFFFFF">
            <g id="Group-3-Copy" transform="translate(907.000000, 17.000000)">
                <circle id="Oval-2-Copy-2" opacity="0.200000003" cx="16.5" cy="16.5" r="16.5"></circle>
                <path d="M22.4843531,10.9169112 C22.484494,10.674613 22.3712982,10.446195 22.178413,10.2995536 C21.9855279,10.1529122 21.735157,10.1049278 21.5017224,10.1698638 L14.8247926,12.0297328 C14.4893567,12.1230429 14.2573303,12.4286078 14.2575326,12.7767802 L14.2575326,18.3129903 C13.8695791,18.1308683 13.4461944,18.0366652 13.0176199,18.0371097 C11.5893582,18.1248571 10.4936642,19.3389436 10.55241,20.7686918 C10.6111558,22.19844 11.8027575,23.3185457 13.2334035,23.2888257 C14.6640494,23.2591056 15.8081054,22.0904794 15.8074234,20.659525 C15.8074234,20.6378265 15.8074234,20.6161281 15.8074234,20.5944296 C15.8074234,20.5727311 15.8074234,20.5727311 15.8074234,20.560332 L15.8074234,13.3533396 L20.9344623,11.9336396 L20.9344623,16.4531213 C20.5465088,16.2709993 20.1231241,16.1767962 19.6945496,16.1772407 C18.2662879,16.2649881 17.170594,17.4790746 17.2293398,18.9088228 C17.2880856,20.338571 18.4796873,21.4586766 19.9103332,21.4289566 C21.3409791,21.3992366 22.4850351,20.2306104 22.4843531,18.799656 C22.4843531,18.7779575 22.4843531,18.7562591 22.4843531,18.7345606 C22.4843531,18.7128621 22.4843531,18.7128621 22.4843531,18.700463 L22.4843531,10.9169112 Z M13.0176199,21.7227501 C12.4443563,21.6400062 12.0371841,21.1215489 12.092677,20.545009 C12.14817,19.9684691 12.6467557,19.5371925 13.2252772,19.5653099 C13.8037986,19.5934273 14.2582113,20.0710217 14.2575326,20.6502257 C14.2079918,21.2871177 13.6550071,21.7654495 13.0176199,21.7227501 L13.0176199,21.7227501 Z M19.6914498,19.8628811 C19.1181863,19.7801372 18.7110141,19.2616798 18.766507,18.68514 C18.822,18.1086001 19.3205857,17.6773235 19.8991071,17.7054409 C20.4776286,17.7335583 20.9320412,18.2111527 20.9313625,18.7903566 C20.8818106,19.4259608 20.3307674,19.9038077 19.6945496,19.8628811 L19.6914498,19.8628811 Z" id="Shape" fill-rule="nonzero"></path>
            </g>
        </g>
    </g>
</svg>