<?xml version="1.0" encoding="UTF-8"?>
<svg width="31px" height="23px" viewBox="0 0 31 23" version="1.1" xmlns="http://www.w3.org/2000/svg" xmlns:xlink="http://www.w3.org/1999/xlink">
    <!-- Generator: Sketch 54.1 (76490) - https://sketchapp.com -->
    <title>noun_movies_1680795</title>
    <desc>Created with Sketch.</desc>
    <g id="Channels" stroke="none" stroke-width="1" fill="none" fill-rule="evenodd" opacity="0.800000012">
        <g id="iPad-Pro-Copy-4" transform="translate(-69.000000, -1196.000000)" fill="#000000" fill-rule="nonzero">
            <g id="Group-33" transform="translate(50.000000, 1187.000000)">
                <g id="noun_movies_1680795" transform="translate(19.000000, 9.000000)">
                    <path d="M27.6544302,0.173407893 L3.72414095,0.173407893 C1.89922931,0.173407893 0.412875937,1.65976127 0.412875937,3.4846729 L0.412875937,18.4803269 C0.412875937,19.0253232 0.875296986,19.4720549 1.44506578,19.4720549 C2.01483457,19.4720549 2.4689981,19.0253232 2.4689981,18.4803269 L2.4689981,17.2590399 L4.76458831,17.2590399 L4.76458831,20.9575825 L3.88929132,20.9575825 C3.33603757,20.9575825 2.89838907,21.4043143 2.89838907,21.9575681 C2.89838907,22.5025643 3.33603757,22.9476446 3.88929132,22.9476446 L27.6544302,22.9476446 C29.4793419,22.9476446 30.9656952,21.4621169 30.9656952,19.6363795 L30.9656952,3.4846729 C30.9656952,1.65976127 29.4793419,0.173407893 27.6544302,0.173407893 Z M4.76541406,15.854436 L2.4689981,15.854436 L2.4689981,12.1468101 L4.76458831,12.1468101 L4.76458831,15.854436 L4.76541406,15.854436 Z M4.76541406,10.9915832 L2.4689981,10.9915832 L2.4689981,7.28395727 L4.76458831,7.28395727 L4.76458831,10.9915832 L4.76541406,10.9915832 Z M4.76541406,5.86366405 L2.47725562,5.86366405 L2.47725562,3.41943851 C2.47725562,2.72580693 2.98922178,2.16429566 3.6167932,2.16429566 L4.76541406,2.16429566 L4.76541406,5.86366405 L4.76541406,5.86366405 Z M18.1169961,11.9494554 L13.5918758,14.3854234 L13.451498,14.4019384 C13.2037725,14.4019384 13.0138495,14.203758 13.0138495,13.9469491 L13.0138495,9.17410331 C13.0138495,8.91729448 13.2037725,8.71993978 13.451498,8.71993978 L13.541505,8.71993978 L13.6736253,8.77691666 L18.1169961,11.1715971 C18.2730632,11.2541723 18.3647217,11.3945501 18.3647217,11.5605262 C18.3647217,11.7256766 18.273889,11.8660544 18.1169961,11.9494554 Z M29.0334359,19.7024397 C29.0334359,20.3960713 28.5214697,20.9575825 27.884815,20.9575825 L26.7452774,20.9575825 L26.7452774,17.2590399 L29.0334359,17.2590399 L29.0334359,19.7024397 Z M29.0334359,15.854436 L26.7461032,15.854436 L26.7461032,12.1468101 L29.0342616,12.1468101 L29.0342616,15.854436 L29.0334359,15.854436 Z M29.0334359,10.9915832 L26.7461032,10.9915832 L26.7461032,7.28395727 L29.0342616,7.28395727 L29.0342616,10.9915832 L29.0334359,10.9915832 Z M29.0334359,5.87109582 L26.7461032,5.87109582 L26.7461032,2.16346991 L27.8856408,2.16346991 C28.5222955,2.16346991 29.0342616,2.72498118 29.0342616,3.42687027 L29.0342616,5.87109582 L29.0334359,5.87109582 Z" id="Shape"></path>
                </g>
            </g>
        </g>
    </g>
</svg>