<?xml version="1.0" encoding="UTF-8"?>
<svg width="269px" height="55px" viewBox="0 0 269 55" version="1.1" xmlns="http://www.w3.org/2000/svg" xmlns:xlink="http://www.w3.org/1999/xlink">
    <!-- Generator: Sketch 54.1 (76490) - https://sketchapp.com -->
    <title>moovetv svg</title>
    <desc>Created with Sketch.</desc>
    <g id="Stage-2" stroke="none" stroke-width="1" fill="none" fill-rule="evenodd">
        <g id="iPad-Pro-Copy" transform="translate(-50.000000, -26.000000)" fill="#FFFFFF">
            <g id="Group-5">
                <g id="moovetv-svg" transform="translate(50.000000, 26.000000)">
                    <path d="M119.017523,37.1245045 C118.428874,37.6596396 117.985405,38.0421622 117.56473,38.4454955 C113.815315,42.0452703 110.147658,45.7357207 106.302613,49.225991 C102.682027,52.5126126 98.3102703,54.3811261 93.4484685,54.8508559 C82.4633333,55.9146847 72.4092342,49.1065766 69.4159459,38.5361712 C68.7708108,36.2608559 68.2153604,33.7977477 68.3922523,31.4813063 C69.3867117,18.4854505 79.360045,10.1650901 90.369955,9.77067568 C100.783784,9.39657658 109.529279,16.1982432 112.54982,24.7782432 C112.850586,25.633964 113.092387,26.5075225 113.423874,27.5713514 C114.748829,26.341036 115.94991,25.2524324 117.119775,24.1331081 C119.895045,21.4822072 122.638108,18.7966216 125.427748,16.1605856 C131.779505,10.1541892 139.318468,8.33274775 147.597703,10.6937838 C156.299595,13.1757207 161.609324,19.2123423 163.528378,28.0440541 C166.137162,40.0513964 157.739009,53.2637838 143.653559,54.8419369 C132.704595,56.0682883 122.403243,48.9881532 119.443649,38.4113063 C119.342568,38.0456306 119.205315,37.6878829 119.017523,37.1245045 Z M91.2152703,44.4058108 C97.9525225,44.3959009 103.328649,39.0192793 103.324189,32.288964 C103.320225,25.633964 97.7617568,20.1181081 91.1424324,20.1909459 C84.3779279,20.2657658 79.0548198,25.628018 79.0617568,32.3637838 C79.0667117,39.1094595 84.4225225,44.4147297 91.2152703,44.4058108 Z M141.279144,44.4058108 C148.007973,44.4117568 153.453468,39.0123423 153.453468,32.3325676 C153.453468,25.6909459 148.023829,20.2677477 141.287568,20.1845045 C134.671712,20.1022523 129.161802,25.6190991 129.161802,32.3206757 C129.161802,39.0817117 134.493829,44.4023423 141.279144,44.4058108 Z" id="Shape"></path>
                    <path d="M12.3992793,15.6145495 C15.5545946,11.3488288 19.5081532,9.4159009 24.4626126,9.5481982 C29.4913964,9.68495495 33.1645045,12.0772072 35.7281982,16.499009 C36.1027928,16.0367117 36.3713514,15.7047297 36.6389189,15.3722523 C41.2277027,9.65522523 50.0504955,7.75599099 56.5499099,11.1729279 C61.0138288,13.5190991 63.2906306,17.5677928 63.6711712,22.327027 C64.1750901,28.6450901 64.0358559,35.0181532 64.13,41.3654505 C64.1562613,43.1626126 64.0502252,44.9622523 63.9704505,46.7594144 C63.8401351,49.7016667 62.2951802,51.3571171 59.3608559,51.5449099 C58.0601802,51.6261712 56.6975676,51.6197297 55.4404955,51.3259009 C52.9486486,50.7402252 51.7609459,49.0912162 51.7872072,46.5334685 C51.8481532,40.6995045 51.9675676,34.8645495 52.0146396,29.0300901 C52.0235586,27.719009 51.9536937,26.3821622 51.7153604,25.0958559 C51.314009,22.9305405 50.4290541,20.9901802 48.1031982,20.2781532 C45.6301802,19.521036 43.3479279,20.0358559 41.3798198,21.720045 C39.5137838,23.3175225 38.8532883,25.4615315 38.8314865,27.8314865 C38.7888739,32.2661712 38.7987838,36.7053153 38.7591441,41.1434685 C38.7418018,43.0184234 38.6823423,44.8993243 38.5936486,46.7747748 C38.4727477,49.3285586 36.8594144,51.1817117 34.3333784,51.5042793 C33.1204054,51.6608559 31.8445045,51.6484685 30.635,51.4631532 C27.9558559,51.0504054 26.5803604,49.3786036 26.5986937,46.6588288 C26.6398198,40.7024775 26.8226577,34.7451351 26.7394144,28.7917568 C26.7146396,26.9262162 26.3281532,24.9392793 25.5784685,23.2377477 C23.7986486,19.2029279 18.090045,18.5845495 15.1923874,21.9573874 C13.4834234,23.9487838 12.9690991,26.3856306 12.9294595,28.8863964 C12.8407658,34.5608108 12.8843694,40.2391892 12.8754505,45.9175676 C12.869009,49.551036 11.1565766,51.372973 7.53054054,51.591982 C7.01274775,51.6231982 6.4895045,51.6331081 5.97171171,51.6142793 C2.31099099,51.4765315 0.457837838,49.5886937 0.48954955,45.929955 C0.54454955,39.3720721 0.672387387,32.8206306 0.719954955,26.2627477 C0.746216216,22.6277928 0.689234234,18.9883784 0.635225225,15.3514414 C0.604009009,13.2654054 1.02468468,11.3636937 3.07801802,10.4063964 C5.42121622,9.31333333 7.87342342,9.08391892 10.2077027,10.4673423 C11.5029279,11.2358559 11.9810811,12.5756757 12.1792793,14.0155856 C12.2362613,14.4392342 12.2947297,14.8633784 12.3992793,15.6145495 Z" id="Path"></path>
                    <path d="M218.396577,35.806982 C218.578919,37.8821171 219.533243,39.4414414 220.968694,40.7247748 C223.749414,43.2131532 227.031577,43.6323423 230.513423,42.7969369 C231.858694,42.4748649 233.134099,41.855 234.424865,41.3352252 C235.128468,41.0503153 235.777072,40.6375676 236.48464,40.3685135 C239.387252,39.266036 241.707658,40.0895495 243.095045,42.6814865 C244.556757,45.4042342 243.926486,48.2751351 241.444054,49.9964865 C239.107793,51.6207207 236.482658,52.5572072 233.701937,53.0665766 C229.745901,53.79 225.776982,54.0531081 221.796667,53.2365315 C211.780721,51.1767568 204.776396,41.2192793 205.992342,31.0556757 C206.844099,23.9472973 210.025676,18.3298649 215.980541,14.3644144 C223.117162,9.61261261 235.745856,9.52689189 242.566351,19.0666667 C245.145405,22.6748649 245.983288,26.673018 245.178108,31.0115766 C244.683604,33.6877477 243.181261,35.0652252 240.27964,35.2213063 C236.492072,35.4279279 232.694595,35.4502252 228.901577,35.530991 C225.78491,35.5968919 222.66973,35.6345495 219.553559,35.694009 C219.20473,35.7009459 218.856892,35.7633784 218.396577,35.806982 Z M218.32473,28.0321622 C218.636396,28.1416667 218.782072,28.2387838 218.926261,28.2318468 C223.631982,28.106982 228.336712,27.9727027 233.042432,27.8314865 C233.87982,27.8057207 233.991306,27.2458108 233.899144,26.5754054 C233.551802,24.034009 232.079189,22.3671622 229.754324,21.4455405 C225.599595,19.800991 220.464775,22.050045 218.81973,26.2131982 C218.594279,26.785991 218.492207,27.4063514 218.32473,28.0321622 Z" id="Shape"></path>
                    <path d="M184.063198,38.6872973 C184.357523,37.9985586 184.521532,37.6447748 184.659775,37.2815766 C187.283423,30.3704054 189.905586,23.4602252 192.527252,16.5495495 C192.570856,16.4365766 192.607027,16.3221171 192.648649,16.2091441 C194.417072,11.5346396 198.41473,10.2448649 202.634369,12.9705856 C204.244234,14.0116216 204.993919,15.4782883 204.691171,17.3547297 C204.489505,18.6053604 204.219459,19.8921622 203.704144,21.0392342 C199.620766,30.1107658 195.471982,39.1565315 191.345,48.2087387 C190.116667,50.9067117 188.285315,52.8465766 185.198874,53.3475225 C181.722477,53.9143694 178.741577,52.4343243 176.921622,48.9787387 C175.843423,46.9313514 174.954009,44.7809009 174.001171,42.6715766 C170.912748,35.8228378 167.832748,28.9711261 164.759189,22.1159459 C164.350901,21.2052252 163.964414,20.2801351 163.629459,19.3411712 C162.18509,15.286036 163.94955,12.2734234 168.19545,11.5108559 C171.578694,10.9038739 173.542838,11.9022973 174.901486,15.2563063 C177.328423,21.2567568 179.62455,27.3092342 181.974685,33.3409009 C182.625766,35.0092342 183.278333,36.6775676 184.063198,38.6872973 Z" id="Path"></path>
                    <g id="Group" transform="translate(242.792793, 0.000000)" fill-rule="nonzero">
                        <polygon id="Path" points="6.985 15.4113964 4.88558559 15.4113964 4.88558559 2.24112613 0.0713513514 2.24112613 0.0713513514 0.396396396 11.7992342 0.396396396 11.7992342 2.24162162 6.985 2.24162162"></polygon>
                        <polygon id="Path" points="19.3481081 12.6970721 19.4115315 12.6970721 23.928964 0.396396396 26.1978378 0.396396396 20.3024324 15.4113964 18.3511712 15.4113964 12.4978829 0.396396396 14.8306757 0.396396396"></polygon>
                    </g>
                </g>
            </g>
        </g>
    </g>
</svg>