<svg width="163" height="50" viewBox="0 0 163 50" fill="none" xmlns="http://www.w3.org/2000/svg">
<path fill-rule="evenodd" clip-rule="evenodd" d="M7.88326 4.06591C9.97126 1.24191 12.5883 -0.0371145 15.8673 0.0498855C19.1953 0.140885 21.6263 1.7239 23.3233 4.6509C23.5713 4.3449 23.7493 4.1249 23.9263 3.9049C26.9633 0.120897 32.8023 -1.1361 37.1043 1.1259C40.0583 2.6789 41.5653 5.3589 41.8173 8.5089C42.0623 11.5769 42.0773 14.6659 42.0933 17.7519C42.0983 18.8719 42.1043 19.9919 42.1213 21.1109C42.1353 22.1039 42.0893 23.0989 42.0423 24.0919C42.0333 24.2889 42.0243 24.4849 42.0153 24.6819C41.9293 26.6289 40.9063 27.7249 38.9643 27.8489C38.1033 27.9029 37.2013 27.8989 36.3693 27.7039C34.7203 27.3169 33.9343 26.2249 33.9523 24.5319C33.9703 22.8059 33.9953 21.0799 34.0213 19.3539C34.0533 17.2179 34.0853 15.0819 34.1023 12.9459C34.1083 12.0779 34.0623 11.1929 33.9043 10.3419C33.6383 8.90788 33.0533 7.62388 31.5133 7.15288C29.8773 6.65188 28.3663 6.99189 27.0633 8.10689C25.8283 9.16489 25.3913 10.5839 25.3773 12.1529C25.3623 13.6629 25.3573 15.1749 25.3523 16.6859C25.3473 18.1119 25.3423 19.5379 25.3293 20.9639C25.3173 22.2049 25.2783 23.4499 25.2193 24.6919C25.1393 26.3819 24.0723 27.6089 22.4003 27.8219C21.5973 27.9259 20.7533 27.9179 19.9523 27.7949C18.1793 27.5219 17.2683 26.4149 17.2813 24.6149C17.2903 23.2449 17.3113 21.8739 17.3323 20.5039C17.3713 17.9319 17.4103 15.3589 17.3743 12.7879C17.3573 11.5529 17.1023 10.2379 16.6053 9.1119C15.4273 6.4409 11.6493 6.03191 9.73126 8.26391C8.60026 9.58191 8.26027 11.1949 8.23427 12.8509C8.19227 15.5389 8.19426 18.2289 8.19726 20.9199V20.9209C8.19826 21.9889 8.20026 23.0559 8.19826 24.1239C8.19426 26.5289 7.06026 27.7349 4.66026 27.8799C4.31826 27.9009 3.97126 27.9079 3.62926 27.8949C1.20626 27.8039 -0.0207349 26.5539 0.000265055 24.1319C0.0182651 22.0669 0.0462626 20.0029 0.0742626 17.9389C0.105263 15.6639 0.136265 13.3899 0.153265 11.1139C0.170265 8.78988 0.135264 6.4629 0.100264 4.1379L0.0972652 3.8919C0.0762652 2.5109 0.354262 1.25188 1.71326 0.617879C3.26426 -0.105121 4.88726 -0.257106 6.43226 0.658894C7.28926 1.16689 7.60626 2.05389 7.73726 3.00689C7.77526 3.28789 7.81426 3.56891 7.88326 4.06591ZM78.0673 18.6469C77.8533 18.8389 77.6663 19.0059 77.4863 19.1779C76.7083 19.9249 75.9363 20.6779 75.1633 21.4309C73.4713 23.0799 71.7803 24.7279 70.0333 26.3139C67.6363 28.4899 64.7433 29.7269 61.5253 30.0369C54.2553 30.7419 47.6003 26.2349 45.6193 19.2379C45.1923 17.7319 44.8253 16.1019 44.9423 14.5679C45.6003 5.96589 52.2013 0.458889 59.4873 0.196889C66.3803 -0.0501113 72.1683 4.45188 74.1673 10.1309C74.3003 10.5079 74.4153 10.8909 74.5423 11.3119C74.6063 11.5229 74.6723 11.7449 74.7463 11.9799C75.0233 11.7229 75.2923 11.4749 75.5553 11.2319C76.1233 10.7079 76.6623 10.2109 77.1923 9.70388C77.9453 8.98488 78.6953 8.26088 79.4453 7.53688L79.4463 7.53588C80.5243 6.49588 81.6023 5.4559 82.6903 4.4269C86.8943 0.450899 91.8843 -0.754112 97.3643 0.808888C103.123 2.45089 106.637 6.4469 107.907 12.2929C109.634 20.2409 104.076 28.9869 94.7533 30.0319C87.5073 30.8429 80.6893 26.1569 78.7303 19.1559C78.6863 18.9979 78.6323 18.8419 78.5663 18.6489L78.5653 18.6479C78.5303 18.5459 78.4913 18.4329 78.4483 18.3039C78.3113 18.4279 78.1863 18.5409 78.0693 18.6449L78.0673 18.6469ZM60.0473 23.1239C64.5063 23.1169 68.0643 19.5579 68.0613 15.1029C68.0593 10.6979 64.3803 7.0469 59.9993 7.0949C55.5223 7.1449 51.9993 10.6939 52.0033 15.1529C52.0063 19.6179 55.5513 23.1289 60.0473 23.1239ZM93.1823 23.1239C97.6353 23.1279 101.239 19.5529 101.239 15.1319C101.239 10.7359 97.6463 7.1459 93.1873 7.0909C88.8093 7.0359 85.1623 10.6879 85.1623 15.1239C85.1623 19.5989 88.6913 23.1209 93.1823 23.1239ZM145.924 20.6869C144.974 19.8379 144.342 18.8049 144.222 17.4319C144.334 17.4209 144.436 17.4089 144.531 17.3969H144.532C144.696 17.3769 144.842 17.3599 144.988 17.3569C145.886 17.3399 146.785 17.3249 147.683 17.3109C148.847 17.2919 150.01 17.2739 151.174 17.2489C151.779 17.2359 152.384 17.2259 152.989 17.2149C154.895 17.1809 156.802 17.1479 158.705 17.0439C160.625 16.9409 161.62 16.0289 161.947 14.2579C162.48 11.3859 161.925 8.73888 160.218 6.35088C155.704 0.0358801 147.346 0.0929043 142.623 3.2379C138.681 5.8629 136.576 9.58089 136.012 14.2869C135.207 21.0139 139.843 27.6049 146.472 28.9689C149.106 29.5089 151.733 29.3349 154.352 28.8559C156.192 28.5189 157.929 27.8989 159.476 26.8239C161.119 25.6849 161.536 23.7839 160.568 21.9819C159.65 20.2669 158.114 19.7209 156.193 20.4509C155.946 20.5449 155.71 20.6649 155.474 20.7859C155.262 20.8939 155.05 21.0019 154.83 21.0909C154.621 21.1749 154.412 21.2639 154.203 21.3519L154.202 21.3529C153.558 21.6249 152.913 21.8979 152.241 22.0589C149.937 22.6119 147.765 22.3339 145.924 20.6869ZM144.357 12.3559H144.356C144.306 12.3359 144.247 12.3109 144.174 12.2849C144.21 12.1519 144.241 12.0189 144.272 11.8879V11.8859C144.337 11.6089 144.401 11.3379 144.502 11.0809C145.591 8.32589 148.989 6.83689 151.739 7.92489C153.278 8.53589 154.252 9.63888 154.482 11.3209C154.543 11.7649 154.469 12.1349 153.915 12.1529C150.801 12.2459 147.687 12.3349 144.572 12.4179C144.511 12.4199 144.449 12.3949 144.357 12.3559ZM121.498 19.3379C121.564 19.1829 121.621 19.0539 121.67 18.9409C121.765 18.7229 121.833 18.5669 121.893 18.4079C123.63 13.8329 125.365 9.25889 127.1 4.6849C127.117 4.6419 127.132 4.5989 127.146 4.5559C127.158 4.5239 127.169 4.49088 127.181 4.45888C128.351 1.36488 130.997 0.510907 133.79 2.31591C134.855 3.00491 135.351 3.97588 135.151 5.21788C135.017 6.04488 134.839 6.89688 134.498 7.65688C132.452 12.2019 130.381 16.7369 128.311 21.2719L128.31 21.2739C127.646 22.7299 126.981 24.1849 126.318 25.6409C125.505 27.4269 124.293 28.7109 122.25 29.0419C119.949 29.4179 117.976 28.4379 116.772 26.1509C116.242 25.1449 115.782 24.1029 115.322 23.0619C115.162 22.6999 115.002 22.3359 114.839 21.9759C112.795 17.4419 110.756 12.9069 108.722 8.36889C108.452 7.76589 108.196 7.15389 107.974 6.53289C107.018 3.84789 108.186 1.8539 110.996 1.3489C113.235 0.947897 114.535 1.60788 115.435 3.82888C116.573 6.64288 117.667 9.4739 118.762 12.3059V12.3069C119.213 13.4719 119.663 14.6359 120.116 15.7989C120.363 16.4329 120.61 17.0659 120.875 17.7419L121.498 19.3379ZM110.514 36.5119H113.258L117.419 44.5999L121.544 36.5119H124.288V49.0659H122.082V40.0629L118.172 47.7739H116.63L112.702 40.0629V49.0659H110.514V36.5119ZM136.662 49.0659L135.55 46.4109H129.417L128.305 49.0659H125.812L131.318 36.5119H133.811L139.245 49.0659H136.662ZM134.689 44.3489H130.278L132.501 39.0759L134.689 44.3489ZM148.624 49.0659L146.454 45.3529C146.358 45.3649 146.209 45.3709 146.006 45.3709H143.172V49.0659H140.769V36.5119H146.006C147.632 36.5119 148.887 36.8879 149.772 37.6419C150.657 38.3949 151.099 39.4589 151.099 40.8339C151.099 41.8139 150.887 42.6509 150.462 43.3449C150.038 44.0379 149.419 44.5579 148.606 44.9049L151.368 49.0659H148.624ZM146.006 43.2549H143.172V38.6099H146.006C146.914 38.6099 147.608 38.8009 148.086 39.1839C148.564 39.5659 148.803 40.1399 148.803 40.9059C148.803 41.6829 148.564 42.2689 148.086 42.6629C147.608 43.0579 146.914 43.2549 146.006 43.2549ZM152.211 36.5119H162.451V38.6459H158.542V49.0659H156.121V38.6459H152.211V36.5119Z" fill="white"/>
</svg>
