<?xml version="1.0" encoding="UTF-8"?>
<svg width="301px" height="300px" viewBox="0 0 301 300" version="1.1" xmlns="http://www.w3.org/2000/svg" xmlns:xlink="http://www.w3.org/1999/xlink">
    <!-- Generator: Sketch 54.1 (76490) - https://sketchapp.com -->
    <title>Chief Daddy Copy 8</title>
    <desc>Created with Sketch.</desc>
    <defs>
        <linearGradient x1="147.995107%" y1="118.651569%" x2="-38.1900825%" y2="-1.81957563%" id="linearGradient-1">
            <stop stop-color="#17EAD9" offset="0%"></stop>
            <stop stop-color="#002CFF" offset="100%"></stop>
        </linearGradient>
        <linearGradient x1="50%" y1="0%" x2="50%" y2="196.222584%" id="linearGradient-2">
            <stop stop-color="#000000" stop-opacity="0" offset="0%"></stop>
            <stop stop-color="#000000" offset="100%"></stop>
        </linearGradient>
    </defs>
    <g id="Music" stroke="none" stroke-width="1" fill="none" fill-rule="evenodd">
        <g id="iPad-Pro-Copy-5" transform="translate(-372.000000, -1253.000000)">
            <g id="Group-37" transform="translate(51.000000, 928.000000)">
                <g id="Group-33">
                    <g id="Chief-Daddy-Copy-8" transform="translate(321.428571, 325.000000)">
                        <rect id="Rectangle" fill="url(#linearGradient-1)" x="0" y="0" width="300" height="300" rx="10"></rect>
                        <text id="Rock" font-family="Montserrat-Black, Montserrat" font-size="55" font-weight="700" fill="#FFFFFF">
                            <tspan x="79" y="170">Rock</tspan>
                        </text>
                        <rect id="Rectangle-Copy-15" fill="url(#linearGradient-2)" x="0" y="225" width="300" height="75" rx="10"></rect>
                        <g id="moovetv-svg" transform="translate(199.285714, 264.642857)" fill="#FFFFFF">
                            <path d="M39.4148938,12.2944788 C39.2199517,12.4716988 39.0730888,12.5983784 38.9337741,12.7319498 C37.6920849,13.924083 36.477471,15.1462452 35.204112,16.3021139 C34.0050869,17.3905405 32.5572973,18.009334 30.9472201,18.1648938 C27.3092857,18.5172008 23.9796815,16.2625676 22.9883977,12.7619788 C22.774749,12.0084653 22.5908012,11.1927606 22.6493822,10.4256274 C22.9787162,6.12180502 26.2815734,3.366361 29.9277124,3.23574324 C33.3764479,3.11185328 36.2726834,5.36435328 37.2729923,8.20578185 C37.3725965,8.48916988 37.4526737,8.77846525 37.5624517,9.1307722 C38.0012355,8.72333012 38.3989961,8.36281853 38.7864189,7.9921332 C39.7055019,7.11423745 40.6139189,6.22485521 41.5377606,5.35188224 C43.6412645,3.36275097 46.1379344,2.75954633 48.8797587,3.54144788 C51.7615541,4.36338803 53.519971,6.36252896 54.1555019,9.2873166 C55.0194498,13.2637741 52.2382432,17.639305 47.5735811,18.1619402 C43.9476255,18.5680695 40.536139,16.2233494 39.5560135,12.7206274 C39.5225386,12.599527 39.4770849,12.4810521 39.4148938,12.2944788 Z M30.2076544,14.7058205 C32.4388224,14.7025386 34.2192278,12.9219691 34.217751,10.6930985 C34.2164382,8.48916988 32.3756467,6.66249035 30.1835328,6.68661197 C27.9433398,6.71138996 26.1804923,8.48720077 26.1827896,10.7178764 C26.1844305,12.951834 27.9581081,14.7087741 30.2076544,14.7058205 Z M46.787249,14.7058205 C49.0156274,14.7077896 50.8190058,12.9196718 50.8190058,10.7075386 C50.8190058,8.50804054 49.0208784,6.71204633 46.7900386,6.68447876 C44.5990734,6.65723938 42.7743629,8.4842471 42.7743629,10.7036004 C42.7743629,12.9426448 44.5401641,14.7046718 46.787249,14.7058205 Z" id="Shape"></path>
                            <path d="M4.10625483,5.17105212 C5.15119691,3.75837838 6.46049228,3.1182529 8.10125483,3.16206564 C9.76663127,3.20735521 10.9830502,3.99959459 11.8320656,5.46395753 C11.9561197,5.31085907 12.0450579,5.20091699 12.133668,5.09081081 C13.6533301,3.19750965 16.5751641,2.56854247 18.7275676,3.70012548 C20.2058784,4.47710425 20.9598842,5.81790541 21.0859073,7.39401544 C21.2527896,9.486361 21.2066795,11.5969208 21.2378571,13.6989479 C21.2465541,14.294112 21.2114382,14.8900965 21.1850193,15.4852606 C21.1418629,16.4596429 20.630222,17.0078764 19.6584653,17.0700676 C19.227722,17.0969788 18.7764672,17.0948456 18.3601641,16.9975386 C17.5349421,16.8035811 17.141612,16.2574807 17.1503089,15.4104344 C17.1704923,13.4784073 17.2100386,11.5460521 17.2256274,9.613861 C17.2285811,9.17967181 17.205444,8.73694981 17.1265154,8.31096525 C16.9936004,7.59388031 16.7005309,6.95129344 15.9302799,6.71549228 C15.1112934,6.46475869 14.3554826,6.63525097 13.7037066,7.19300193 C13.0857336,7.72203668 12.8669981,8.43206564 12.859778,9.21692085 C12.845666,10.6855502 12.8489479,12.1556564 12.8358205,13.6254344 C12.8300772,14.246361 12.8103861,14.8692568 12.7810135,15.4903475 C12.7409749,16.3360811 12.2066892,16.9497876 11.3701448,17.056612 C10.9684459,17.1084653 10.5459073,17.1043629 10.1453571,17.0429923 C9.25810811,16.9063031 8.80258687,16.3526544 8.8086583,15.4519498 C8.82227799,13.4793919 8.88282819,11.5065058 8.85526062,9.53493243 C8.84705598,8.91712355 8.71906371,8.25911197 8.47079151,7.69561776 C7.88137066,6.3594112 5.99085907,6.15462355 5.03124517,7.27160232 C4.46528958,7.93109073 4.29496139,8.73809846 4.28183398,9.56627413 C4.25246139,11.4454633 4.26690154,13.3259653 4.26394788,15.2064672 C4.26181467,16.4097587 3.69471042,17.0131274 2.49388031,17.0856564 C2.32240347,17.0959942 2.14912162,17.0992761 1.97764479,17.0930405 C0.765328185,17.0474228 0.151621622,16.4222297 0.162123552,15.2105695 C0.180337838,13.0388031 0.222673745,10.8691699 0.238426641,8.69740347 C0.247123552,7.49361969 0.228252896,6.28835907 0.210366795,5.08391892 C0.200028958,4.3930888 0.339343629,3.76330116 1.01934363,3.44627413 C1.79533784,3.08428571 2.60743243,3.00831081 3.38047297,3.46645753 C3.8094112,3.72096525 3.96776062,4.16467181 4.03339768,4.6415251 C4.05226834,4.78182432 4.07163127,4.92228764 4.10625483,5.17105212 Z" id="Path"></path>
                            <path d="M72.326139,11.8581564 C72.3865251,12.5453764 72.7025676,13.0617761 73.177944,13.4867761 C74.098832,14.3108494 75.1857819,14.4496718 76.338861,14.1730116 C76.7843726,14.0663514 77.2067471,13.8610714 77.6342085,13.6889382 C77.8672201,13.5945849 78.0820174,13.4578958 78.3163417,13.3687934 C79.2775965,13.0036873 80.0460425,13.2764093 80.5055019,14.134778 C80.9895753,15.0364672 80.7808494,15.9872201 79.9587452,16.557278 C79.1850483,17.0951737 78.3156853,17.4053089 77.3947973,17.5739961 C76.0846815,17.8135714 74.7702992,17.9007046 73.4521429,17.6302799 C70.1351737,16.9481467 67.8155598,13.6505405 68.2182432,10.2846718 C68.5003185,7.93059846 69.5539575,6.07027992 71.5260232,4.75704633 C73.8894498,3.18339768 78.0716795,3.15500965 80.3304151,6.31428571 C81.1845174,7.50920849 81.4619981,8.8332722 81.1953475,10.2700676 C81.031583,11.156332 80.5340541,11.6125097 79.5731274,11.6641988 C78.3188031,11.7326255 77.0611969,11.7400097 75.8050676,11.7667568 C74.7729247,11.7885811 73.7412741,11.8010521 72.7092954,11.8207432 C72.5937741,11.8230405 72.4785811,11.8437162 72.326139,11.8581564 Z M72.3023456,9.28337838 C72.4055598,9.31964286 72.4538031,9.35180502 72.5015541,9.34950772 C74.0599421,9.30815637 75.6180019,9.26368726 77.17639,9.21692085 C77.4537066,9.20838803 77.4906274,9.02296332 77.4601062,8.80094595 C77.3450772,7.95931467 76.8573938,7.40730695 76.087471,7.10209459 C74.7115541,6.55747104 73.0110618,7.30228764 72.4662741,8.68099421 C72.391612,8.87068533 72.3578089,9.07612934 72.3023456,9.28337838 Z" id="Shape"></path>
                            <path d="M60.9559942,12.812027 C61.0534653,12.5839382 61.1077799,12.4667761 61.1535618,12.3464961 C62.0224324,10.0577317 62.8908108,7.76929537 63.7590251,5.48069498 C63.7734653,5.44328185 63.785444,5.40537645 63.7992278,5.36796332 C64.3848745,3.81991313 65.7087741,3.39277992 67.1061873,4.29545367 C67.6393243,4.64021236 67.8875965,5.12592664 67.7873359,5.74734556 C67.7205502,6.16151544 67.6311197,6.58766409 67.4604633,6.96753861 C66.1081757,9.9717471 64.7342278,12.9674228 63.3675,15.9652317 C62.9607143,16.8587162 62.3542278,17.501139 61.3320946,17.6670367 C60.1808205,17.8547587 59.193639,17.3646139 58.5909266,16.2202317 C58.233861,15.5422008 57.9393147,14.8300386 57.6237645,14.1314961 C56.6009749,11.8634073 55.5809749,9.59433398 54.5631081,7.32411197 C54.4278958,7.02250965 54.2999035,6.71614865 54.1889768,6.40519305 C53.7106467,5.06225869 54.2949807,4.06457529 55.7010907,3.81203668 C56.8215154,3.61102317 57.4719788,3.94166988 57.9219208,5.05241313 C58.7256467,7.03957529 59.4860521,9.04396718 60.2643436,11.0414672 C60.4799614,11.5939672 60.6960714,12.1464672 60.9559942,12.812027 Z" id="Path"></path>
                            <g id="Group" transform="translate(80.405405, 0.000000)" fill-rule="nonzero">
                                <polygon id="Path" points="2.31321429 5.10377413 1.61795367 5.10377413 1.61795367 0.74219112 0.0236293436 0.74219112 0.0236293436 0.131274131 3.90753861 0.131274131 3.90753861 0.742355212 2.31321429 0.742355212"></polygon>
                                <polygon id="Path" points="6.40749035 4.20487452 6.42849421 4.20487452 7.92452703 0.131274131 8.67590734 0.131274131 6.72353282 5.10377413 6.07733591 5.10377413 4.13890927 0.131274131 4.91145753 0.131274131"></polygon>
                            </g>
                        </g>
                    </g>
                </g>
            </g>
        </g>
    </g>
</svg>